<svg width="24" height="24" viewBox="0 0 24 24" fill="none" xmlns="http://www.w3.org/2000/svg">
<path d="M18.0488 4.51758H5.95039C5.47316 4.5181 5.01563 4.70791 4.67817 5.04536C4.34072 5.38281 4.15091 5.84035 4.15039 6.31758V14.7832C4.15091 15.2604 4.34073 15.718 4.67818 16.0554C5.01563 16.3929 5.47316 16.5827 5.95039 16.5832H10.1201C10.0776 16.9436 9.94598 17.2877 9.73705 17.5844C9.52812 17.8811 9.24849 18.121 8.92349 18.2824H8.07381C7.91468 18.2824 7.76207 18.3456 7.64955 18.4581C7.53703 18.5707 7.47381 18.7233 7.47381 18.8824C7.47381 19.0415 7.53703 19.1941 7.64955 19.3067C7.76207 19.4192 7.91468 19.4824 8.07381 19.4824H15.9254C16.0845 19.4824 16.2372 19.4192 16.3497 19.3067C16.4622 19.1941 16.5254 19.0415 16.5254 18.8824C16.5254 18.7233 16.4622 18.5707 16.3497 18.4581C16.2372 18.3456 16.0845 18.2824 15.9254 18.2824H15.0759C14.7512 18.1206 14.4719 17.8806 14.263 17.584C14.0542 17.2873 13.9224 16.9434 13.8795 16.5832H18.0488C18.526 16.5827 18.9836 16.3929 19.321 16.0554C19.6585 15.718 19.8483 15.2604 19.8488 14.7832V6.31758C19.8483 5.84035 19.6585 5.38281 19.321 5.04536C18.9836 4.70791 18.526 4.5181 18.0488 4.51758ZM13.2834 18.2824H10.7157C11.0496 17.7727 11.2552 17.1897 11.3147 16.5832H12.6845C12.744 17.1897 12.9495 17.7727 13.2835 18.2824H13.2834ZM18.0488 15.3832H5.95039C5.79132 15.383 5.63883 15.3197 5.52636 15.2072C5.41388 15.0948 5.3506 14.9423 5.35039 14.7832V6.31758C5.3506 6.15851 5.41388 6.00602 5.52635 5.89354C5.63883 5.78106 5.79132 5.71778 5.95039 5.71758H18.0488C18.2079 5.71778 18.3603 5.78106 18.4728 5.89354C18.5853 6.00602 18.6486 6.15851 18.6488 6.31758V13.507H6.76951C6.61038 13.507 6.45777 13.5702 6.34525 13.6828C6.23272 13.7953 6.16951 13.9479 6.16951 14.107C6.16951 14.2662 6.23272 14.4188 6.34525 14.5313C6.45777 14.6438 6.61038 14.707 6.76951 14.707H18.6488V14.7832C18.6486 14.9423 18.5853 15.0948 18.4728 15.2072C18.3603 15.3197 18.2079 15.383 18.0488 15.3832V15.3832ZM13.7996 11.2242V8.30742C13.7996 8.14829 13.8628 7.99568 13.9753 7.88315C14.0878 7.77063 14.2405 7.70742 14.3996 7.70742C14.5587 7.70742 14.7113 7.77063 14.8239 7.88315C14.9364 7.99568 14.9996 8.14829 14.9996 8.30742V11.2242C14.9996 11.3834 14.9364 11.536 14.8239 11.6485C14.7113 11.761 14.5587 11.8242 14.3996 11.8242C14.2405 11.8242 14.0878 11.761 13.9753 11.6485C13.8628 11.536 13.7996 11.3834 13.7996 11.2242ZM11.3996 11.2242V9.50742C11.3996 9.34829 11.4628 9.19568 11.5753 9.08315C11.6878 8.97063 11.8405 8.90742 11.9996 8.90742C12.1587 8.90742 12.3113 8.97063 12.4239 9.08315C12.5364 9.19568 12.5996 9.34829 12.5996 9.50742V11.2242C12.5996 11.3834 12.5364 11.536 12.4239 11.6485C12.3113 11.761 12.1587 11.8242 11.9996 11.8242C11.8405 11.8242 11.6878 11.761 11.5753 11.6485C11.4628 11.536 11.3996 11.3834 11.3996 11.2242ZM8.99959 11.2242V10.7074C8.99959 10.5483 9.0628 10.3957 9.17533 10.2832C9.28785 10.1706 9.44046 10.1074 9.59959 10.1074C9.75872 10.1074 9.91133 10.1706 10.0239 10.2832C10.1364 10.3957 10.1996 10.5483 10.1996 10.7074V11.2242C10.1996 11.3834 10.1364 11.536 10.0239 11.6485C9.91133 11.761 9.75872 11.8242 9.59959 11.8242C9.44046 11.8242 9.28785 11.761 9.17533 11.6485C9.0628 11.536 8.99959 11.3834 8.99959 11.2242Z" fill="#97A6B2"/>
</svg>
