<svg width="24" height="24" viewBox="0 0 24 24" fill="none" xmlns="http://www.w3.org/2000/svg">
<path d="M20.5162 12.2655C20.5272 12.1985 20.5522 12.1361 20.5613 12.0688C20.5731 11.9723 20.5608 11.8744 20.5253 11.7839C20.4865 11.4435 20.3501 11.1216 20.1324 10.857C19.9147 10.5924 19.6251 10.3965 19.2985 10.293C18.9719 10.1894 18.6223 10.1825 18.2919 10.2733C17.9616 10.364 17.6645 10.5485 17.4366 10.8043C17.2088 11.0602 17.0599 11.3766 17.0079 11.7152C16.9559 12.0539 17.003 12.4003 17.1436 12.7128C17.2842 13.0252 17.5122 13.2903 17.8001 13.476C18.0881 13.6617 18.4236 13.7601 18.7662 13.7593C18.8004 13.7593 18.8324 13.751 18.8662 13.7491C18.3092 15.218 17.372 16.5127 16.1504 17.5005C14.9288 18.4884 13.4667 19.134 11.9137 19.3713C11.8302 19.383 11.7452 19.3765 11.6644 19.3524C11.5837 19.3282 11.5091 19.2869 11.4457 19.2313C11.3788 19.1738 11.3251 19.1027 11.2882 19.0226C11.2513 18.9425 11.2321 18.8554 11.2319 18.7672V18.2308C12.3554 18.1456 13.4458 17.8111 14.4238 17.2516C15.4018 16.692 16.2428 15.9215 16.8856 14.9961C16.976 14.8651 17.0107 14.7036 16.982 14.547C16.9533 14.3904 16.8636 14.2516 16.7326 14.1612C16.6016 14.0708 16.4401 14.0361 16.2835 14.0648C16.1269 14.0934 15.9882 14.1831 15.8977 14.3141C15.0616 15.5081 13.8444 16.3823 12.4459 16.7933C11.0474 17.2042 9.55078 17.1274 8.20168 16.5756C6.85258 16.0237 5.73121 15.0295 5.02169 13.7562C4.31216 12.4829 4.05664 11.0063 4.29708 9.56861C4.53752 8.13096 5.25963 6.81779 6.34486 5.84468C7.43008 4.87157 8.81392 4.29637 10.2692 4.2135C11.7244 4.13064 13.1646 4.54503 14.3533 5.38866C15.542 6.23228 16.4085 7.455 16.8106 8.85606C16.8322 8.93186 16.8685 9.00266 16.9175 9.06441C16.9665 9.12617 17.0272 9.17767 17.096 9.21598C17.1649 9.25429 17.2407 9.27866 17.319 9.28769C17.3973 9.29672 17.4766 9.29024 17.5524 9.26862C17.6282 9.247 17.699 9.21066 17.7608 9.16168C17.8225 9.1127 17.874 9.05203 17.9123 8.98315C17.9506 8.91426 17.975 8.8385 17.984 8.7602C17.9931 8.6819 17.9866 8.60258 17.965 8.52678C17.5809 7.18774 16.8377 5.97938 15.8157 5.03271C14.7938 4.08604 13.5322 3.43719 12.1678 3.1565C10.8033 2.87582 9.38809 2.97401 8.07548 3.44043C6.76286 3.90685 5.60298 4.72371 4.72158 5.80243C3.84018 6.88115 3.27091 8.18058 3.07547 9.55982C2.88004 10.9391 3.0659 12.3455 3.61292 13.6266C4.15993 14.9077 5.04722 16.0147 6.17858 16.8274C7.30994 17.6401 8.64221 18.1276 10.0309 18.2371V18.7672C10.0312 19.0277 10.0875 19.2851 10.1961 19.5219C10.3047 19.7587 10.463 19.9694 10.6602 20.1395C10.9851 20.4211 11.4004 20.5765 11.8303 20.5772C11.916 20.5773 12.0016 20.5711 12.0864 20.5585C14.1523 20.2445 16.0693 19.2958 17.5719 17.8436C19.0744 16.3915 20.088 14.5079 20.4722 12.4539C20.4903 12.392 20.505 12.3291 20.5162 12.2655ZM18.1871 11.9803C18.1871 11.8657 18.221 11.7538 18.2847 11.6586C18.3483 11.5634 18.4387 11.4891 18.5445 11.4453C18.6503 11.4015 18.7668 11.39 18.8791 11.4124C18.9914 11.4347 19.0946 11.4899 19.1755 11.5709C19.2565 11.6519 19.3116 11.7551 19.334 11.8674C19.3563 11.9797 19.3448 12.0961 19.301 12.2019C19.2571 12.3077 19.1829 12.3981 19.0877 12.4617C18.9924 12.5253 18.8805 12.5593 18.766 12.5593C18.6125 12.5591 18.4653 12.4981 18.3567 12.3895C18.2482 12.281 18.1872 12.1338 18.1871 11.9803ZM8.79564 10.6355C8.79569 10.9713 8.89529 11.2995 9.08186 11.5787C9.26842 11.8578 9.53357 12.0754 9.84378 12.2039C10.154 12.3323 10.4953 12.3659 10.8246 12.3004C11.1539 12.2349 11.4564 12.0733 11.6939 11.8358C11.9313 11.5984 12.093 11.296 12.1585 10.9667C12.224 10.6373 12.1905 10.296 12.062 9.98579C11.9336 9.67557 11.716 9.41041 11.4369 9.22382C11.1577 9.03724 10.8295 8.93761 10.4938 8.93754C10.0436 8.93802 9.61193 9.11706 9.29358 9.43539C8.97522 9.75372 8.79615 10.1853 8.79564 10.6355ZM10.9916 10.6355C10.9916 10.734 10.9624 10.8302 10.9076 10.9121C10.8529 10.9939 10.7751 11.0576 10.6841 11.0953C10.5931 11.1329 10.493 11.1427 10.3965 11.1234C10.2999 11.1042 10.2113 11.0567 10.1417 10.9871C10.0721 10.9174 10.0248 10.8287 10.0056 10.7321C9.98648 10.6355 9.9964 10.5354 10.0341 10.4445C10.0719 10.3536 10.1357 10.2759 10.2176 10.2212C10.2995 10.1666 10.3958 10.1375 10.4942 10.1375C10.6261 10.1379 10.7524 10.1906 10.8455 10.2839C10.9386 10.3773 10.9909 10.5037 10.9909 10.6355H10.9916Z" fill="#97A6B2"/>
</svg>
