<svg width="24" height="24" viewBox="0 0 24 24" fill="none" xmlns="http://www.w3.org/2000/svg">
<path d="M20.3969 12.0283C20.3969 12.0183 20.4027 12.0099 20.4027 11.9998C20.4027 11.9897 20.3974 11.9813 20.3969 11.9712C20.3932 9.7523 19.51 7.62535 17.9409 6.05641C16.3718 4.48747 14.2447 3.60451 12.0258 3.60098C12.0165 3.60098 12.0087 3.5957 11.9992 3.5957C11.9897 3.5957 11.9819 3.60062 11.9725 3.60098C9.75362 3.60451 7.62658 4.48747 6.05748 6.05641C4.48839 7.62535 3.60521 9.7523 3.60146 11.9712C3.60146 11.9813 3.5957 11.9897 3.5957 11.9998C3.5957 12.0099 3.60098 12.0183 3.60146 12.0283C3.60521 14.2473 4.48839 16.3742 6.05748 17.9432C7.62658 19.5121 9.75362 20.3951 11.9725 20.3986C11.9819 20.3986 11.9897 20.4039 11.9992 20.4039C12.0087 20.4039 12.0165 20.3989 12.0258 20.3986C14.2447 20.3951 16.3718 19.5121 17.9409 17.9432C19.51 16.3742 20.3932 14.2473 20.3969 12.0283ZM12.5992 19.1433V17.7502C12.5992 17.5911 12.536 17.4384 12.4234 17.3259C12.3109 17.2134 12.1583 17.1502 11.9992 17.1502C11.8401 17.1502 11.6874 17.2134 11.5749 17.3259C11.4624 17.4384 11.3992 17.5911 11.3992 17.7502V19.1433C9.70319 19.024 8.10731 18.2963 6.90519 17.094C5.70306 15.8918 4.97556 14.2958 4.85654 12.5998H6.24854C6.40767 12.5998 6.56029 12.5366 6.67281 12.424C6.78533 12.3115 6.84854 12.1589 6.84854 11.9998C6.84854 11.8407 6.78533 11.688 6.67281 11.5755C6.56029 11.463 6.40767 11.3998 6.24854 11.3998H4.85654C4.97547 9.70379 5.70296 8.10782 6.90511 6.9056C8.10727 5.70338 9.7032 4.9758 11.3992 4.85678V6.24878C11.3992 6.40791 11.4624 6.56053 11.5749 6.67305C11.6874 6.78557 11.8401 6.84878 11.9992 6.84878C12.1583 6.84878 12.3109 6.78557 12.4234 6.67305C12.536 6.56053 12.5992 6.40791 12.5992 6.24878V4.85666C14.2952 4.97574 15.8911 5.70334 17.0932 6.90558C18.2954 8.10782 19.0229 9.70379 19.1418 11.3998H17.7498C17.5907 11.3998 17.4381 11.463 17.3256 11.5755C17.213 11.688 17.1498 11.8407 17.1498 11.9998C17.1498 12.1589 17.213 12.3115 17.3256 12.424C17.4381 12.5366 17.5907 12.5998 17.7498 12.5998H19.1418C19.0228 14.2958 18.2953 15.8918 17.0932 17.094C15.8911 18.2963 14.2952 19.024 12.5992 19.1433ZM14.214 11.9998C14.214 12.1589 14.1508 12.3115 14.0383 12.424C13.9258 12.5366 13.7732 12.5998 13.614 12.5998H12.5992V13.6152C12.5992 13.7744 12.536 13.927 12.4234 14.0395C12.3109 14.152 12.1583 14.2152 11.9992 14.2152C11.8401 14.2152 11.6874 14.152 11.5749 14.0395C11.4624 13.927 11.3992 13.7744 11.3992 13.6152V12.5998H10.3843C10.2252 12.5998 10.0726 12.5366 9.96008 12.424C9.84756 12.3115 9.78434 12.1589 9.78434 11.9998C9.78434 11.8407 9.84756 11.688 9.96008 11.5755C10.0726 11.463 10.2252 11.3998 10.3843 11.3998H11.3992V10.3843C11.3992 10.2252 11.4624 10.0726 11.5749 9.96008C11.6874 9.84756 11.8401 9.78434 11.9992 9.78434C12.1583 9.78434 12.3109 9.84756 12.4234 9.96008C12.536 10.0726 12.5992 10.2252 12.5992 10.3843V11.3998H13.614C13.7732 11.3998 13.9258 11.463 14.0383 11.5755C14.1508 11.688 14.214 11.8407 14.214 11.9998Z" fill="#97A6B2"/>
</svg>
