<svg width="24" height="24" viewBox="0 0 24 24" fill="none" xmlns="http://www.w3.org/2000/svg">
<path d="M17.0067 3.99414H6.99414C6.19875 3.99497 5.43616 4.3113 4.87373 4.87373C4.3113 5.43616 3.99497 6.19875 3.99414 6.99414V17.0067C3.99497 17.8021 4.3113 18.5647 4.87373 19.1271C5.43616 19.6895 6.19875 20.0059 6.99414 20.0067H17.0067C17.8021 20.0059 18.5647 19.6895 19.1271 19.1271C19.6895 18.5647 20.0059 17.8021 20.0067 17.0067V6.99414C20.0059 6.19875 19.6895 5.43616 19.1271 4.87373C18.5647 4.3113 17.8021 3.99497 17.0067 3.99414ZM18.8067 17.0067C18.8062 17.4839 18.6163 17.9414 18.2789 18.2789C17.9414 18.6163 17.4839 18.8062 17.0067 18.8067H6.99414C6.51692 18.8062 6.05939 18.6163 5.72194 18.2789C5.3845 17.9414 5.19468 17.4839 5.19414 17.0067V6.99414C5.19468 6.51692 5.3845 6.05939 5.72194 5.72194C6.05939 5.3845 6.51692 5.19468 6.99414 5.19414H17.0067C17.4839 5.19468 17.9414 5.3845 18.2789 5.72194C18.6163 6.05939 18.8062 6.51692 18.8067 6.99414V17.0067ZM12.6004 8.36046C12.6004 8.47913 12.5652 8.59513 12.4993 8.6938C12.4334 8.79247 12.3397 8.86938 12.23 8.91479C12.1204 8.9602 11.9998 8.97208 11.8834 8.94893C11.767 8.92578 11.6601 8.86864 11.5762 8.78472C11.4922 8.70081 11.4351 8.5939 11.4119 8.47752C11.3888 8.36113 11.4007 8.24049 11.4461 8.13085C11.4915 8.02121 11.5684 7.92751 11.6671 7.86158C11.7657 7.79565 11.8818 7.76046 12.0004 7.76046C12.1596 7.76046 12.3122 7.82368 12.4247 7.9362C12.5372 8.04872 12.6004 8.20133 12.6004 8.36046ZM12.6004 10.2339V15.6404C12.6004 15.7995 12.5372 15.9521 12.4247 16.0646C12.3122 16.1772 12.1596 16.2404 12.0004 16.2404C11.8413 16.2404 11.6887 16.1772 11.5762 16.0646C11.4636 15.9521 11.4004 15.7995 11.4004 15.6404V10.8339C11.2413 10.8339 11.0887 10.7707 10.9762 10.6582C10.8636 10.5456 10.8004 10.393 10.8004 10.2339C10.8004 10.0748 10.8636 9.92216 10.9762 9.80964C11.0887 9.69711 11.2413 9.6339 11.4004 9.6339H12.0004C12.1596 9.6339 12.3122 9.69711 12.4247 9.80964C12.5372 9.92216 12.6004 10.0748 12.6004 10.2339Z" fill="#97A6B2"/>
</svg>
