<svg width="24" height="24" viewBox="0 0 24 24" fill="none" xmlns="http://www.w3.org/2000/svg">
<path d="M19.9575 12.5979C20.1166 12.5979 20.2693 12.5347 20.3818 12.4222C20.4943 12.3097 20.5575 12.1571 20.5575 11.9979C20.5575 11.8388 20.4943 11.6862 20.3818 11.5737C20.2693 11.4612 20.1166 11.3979 19.9575 11.3979H18.9615V9.42034H19.9575C20.1166 9.42034 20.2693 9.35712 20.3818 9.2446C20.4943 9.13208 20.5575 8.97947 20.5575 8.82034C20.5575 8.66121 20.4943 8.50859 20.3818 8.39607C20.2693 8.28355 20.1166 8.22034 19.9575 8.22034H18.8224C18.6373 7.48568 18.2568 6.81484 17.7212 6.27899C17.1856 5.74313 16.515 5.36226 15.7804 5.17678V4.04434C15.7804 3.88521 15.7172 3.73259 15.6047 3.62007C15.4922 3.50755 15.3396 3.44434 15.1804 3.44434C15.0213 3.44434 14.8687 3.50755 14.7562 3.62007C14.6437 3.73259 14.5804 3.88521 14.5804 4.04434V5.03758H12.598V4.04434C12.598 3.88521 12.5348 3.73259 12.4223 3.62007C12.3098 3.50755 12.1572 3.44434 11.998 3.44434C11.8389 3.44434 11.6863 3.50755 11.5738 3.62007C11.4613 3.73259 11.398 3.88521 11.398 4.04434V5.03758H9.42044V4.04434C9.42044 3.88521 9.35722 3.73259 9.2447 3.62007C9.13218 3.50755 8.97957 3.44434 8.82044 3.44434C8.66131 3.44434 8.5087 3.50755 8.39618 3.62007C8.28365 3.73259 8.22044 3.88521 8.22044 4.04434V5.1757C7.4849 5.36055 6.81319 5.74127 6.27673 6.27737C5.74027 6.81347 5.35911 7.48492 5.17376 8.22034H4.04336C3.88423 8.22034 3.73162 8.28355 3.6191 8.39607C3.50657 8.50859 3.44336 8.66121 3.44336 8.82034C3.44336 8.97947 3.50657 9.13208 3.6191 9.2446C3.73162 9.35712 3.88423 9.42034 4.04336 9.42034H5.0348V11.3979H4.04336C3.88423 11.3979 3.73162 11.4612 3.6191 11.5737C3.50657 11.6862 3.44336 11.8388 3.44336 11.9979C3.44336 12.1571 3.50657 12.3097 3.6191 12.4222C3.73162 12.5347 3.88423 12.5979 4.04336 12.5979H5.0348V14.5803H4.04336C3.88423 14.5803 3.73162 14.6436 3.6191 14.7561C3.50657 14.8686 3.44336 15.0212 3.44336 15.1803C3.44336 15.3395 3.50657 15.4921 3.6191 15.6046C3.73162 15.7171 3.88423 15.7803 4.04336 15.7803H5.17376C5.35903 16.5158 5.74016 17.1874 6.27663 17.7236C6.81309 18.2598 7.48484 18.6406 8.22044 18.8255V19.9563C8.22044 20.1155 8.28365 20.2681 8.39618 20.3806C8.5087 20.4931 8.66131 20.5563 8.82044 20.5563C8.97957 20.5563 9.13218 20.4931 9.2447 20.3806C9.35722 20.2681 9.42044 20.1155 9.42044 19.9563V18.9631H11.4028V19.9563C11.4028 20.1155 11.4661 20.2681 11.5786 20.3806C11.6911 20.4931 11.8437 20.5563 12.0028 20.5563C12.162 20.5563 12.3146 20.4931 12.4271 20.3806C12.5396 20.2681 12.6028 20.1155 12.6028 19.9563V18.9631H14.5804V19.9563C14.5804 20.1155 14.6437 20.2681 14.7562 20.3806C14.8687 20.4931 15.0213 20.5563 15.1804 20.5563C15.3396 20.5563 15.4922 20.4931 15.6047 20.3806C15.7172 20.2681 15.7804 20.1155 15.7804 19.9563V18.8234C16.5149 18.638 17.1855 18.2572 17.7211 17.7214C18.2567 17.1856 18.6373 16.5149 18.8224 15.7803H19.9575C20.1166 15.7803 20.2693 15.7171 20.3818 15.6046C20.4943 15.4921 20.5575 15.3395 20.5575 15.1803C20.5575 15.0212 20.4943 14.8686 20.3818 14.7561C20.2693 14.6436 20.1166 14.5803 19.9575 14.5803H18.9615V12.5979H19.9575ZM17.7615 14.7636C17.7607 15.559 17.4444 16.3216 16.8819 16.884C16.3195 17.4464 15.5569 17.7628 14.7615 17.7636H9.2348C8.4394 17.7628 7.67682 17.4464 7.11439 16.884C6.55196 16.3216 6.23563 15.559 6.2348 14.7636V9.2371C6.23563 8.4417 6.55196 7.67912 7.11439 7.11669C7.67682 6.55426 8.4394 6.23792 9.2348 6.2371H14.7614C15.5568 6.23792 16.3194 6.55426 16.8818 7.11669C17.4442 7.67912 17.7606 8.4417 17.7614 9.2371L17.7615 14.7636ZM14.7615 7.4371H9.2348C8.75757 7.4376 8.30002 7.62741 7.96257 7.96487C7.62511 8.30232 7.43531 8.75986 7.4348 9.2371V14.7636C7.43531 15.2408 7.62511 15.6984 7.96257 16.0358C8.30002 16.3733 8.75757 16.5631 9.2348 16.5636H14.7614C15.2386 16.5631 15.6962 16.3733 16.0336 16.0358C16.3711 15.6984 16.5609 15.2408 16.5614 14.7636V9.2371C16.5609 8.75986 16.3711 8.30232 16.0336 7.96487C15.6962 7.62741 15.2387 7.4376 14.7615 7.4371ZM15.3615 14.7636C15.3613 14.9226 15.2981 15.0751 15.1856 15.1876C15.0731 15.3001 14.9206 15.3634 14.7615 15.3636H9.2348C9.07573 15.3634 8.92323 15.3001 8.81075 15.1876C8.69827 15.0751 8.63499 14.9226 8.6348 14.7636V9.2371C8.63499 9.07802 8.69827 8.92552 8.81075 8.81304C8.92323 8.70056 9.07573 8.63729 9.2348 8.6371H14.7614C14.9205 8.63729 15.073 8.70056 15.1855 8.81304C15.2979 8.92552 15.3612 9.07802 15.3614 9.2371L15.3615 14.7636Z" fill="#1D99FF"/>
</svg>
