<svg width="24" height="24" viewBox="0 0 24 24" fill="none" xmlns="http://www.w3.org/2000/svg">
<path d="M11.989 12.8123C12.2991 12.6796 12.5634 12.4587 12.749 12.1771C12.9346 11.8955 13.0334 11.5656 13.0332 11.2283C13.0329 10.8911 12.9336 10.5613 12.7475 10.28C12.5615 9.99866 12.2969 9.77819 11.9866 9.64594L10.448 8.98969L9.79061 7.44807C9.65763 7.13829 9.43666 6.87434 9.15509 6.68895C8.87353 6.50355 8.54374 6.40487 8.20662 6.40512C7.8695 6.40538 7.53986 6.50457 7.25858 6.69038C6.97729 6.8762 6.75672 7.14049 6.62421 7.45047L5.96797 8.98969L4.42577 9.64711C4.11599 9.78009 3.85204 10.001 3.66665 10.2826C3.48125 10.5642 3.38256 10.894 3.38281 11.2311C3.38306 11.5682 3.48224 11.8978 3.66805 12.1791C3.85386 12.4604 4.11813 12.681 4.42811 12.8135L5.96797 13.4698L6.62539 15.0114C6.75825 15.3213 6.97918 15.5854 7.26076 15.7709C7.54234 15.9564 7.87219 16.0551 8.20938 16.0548C8.54657 16.0546 8.87627 15.9553 9.15757 15.7694C9.43887 15.5835 9.6594 15.3191 9.79179 15.009L10.448 13.4697L11.9867 12.8135L11.989 12.8123ZM11.5145 11.7102L9.75547 12.4608C9.61332 12.5218 9.50005 12.635 9.43905 12.7772L8.68905 14.5356C8.64928 14.63 8.58259 14.7107 8.49729 14.7675C8.41199 14.8243 8.31185 14.8547 8.20938 14.8549C8.1069 14.8552 8.00661 14.8253 7.92103 14.7689C7.83545 14.7125 7.76835 14.6322 7.72811 14.538L6.97691 12.7772C6.91592 12.6351 6.80264 12.5218 6.6605 12.4608L4.90157 11.7108C4.80726 11.6709 4.72676 11.6041 4.67008 11.5189C4.61341 11.4336 4.58305 11.3335 4.58279 11.2311C4.58254 11.1287 4.61239 11.0285 4.66865 10.9429C4.7249 10.8573 4.80506 10.7902 4.89917 10.7498L6.66053 9.99863C6.80268 9.93764 6.91596 9.82438 6.97695 9.68223L7.72695 7.92383C7.76684 7.82952 7.83358 7.74901 7.91887 7.69233C8.00416 7.63565 8.10422 7.6053 8.20662 7.60504C8.30903 7.60479 8.40924 7.63464 8.49481 7.69089C8.58038 7.74715 8.64752 7.82732 8.68789 7.92143L9.43909 9.68217C9.50008 9.82432 9.61336 9.93759 9.7555 9.99858L11.5133 10.7486C11.608 10.7883 11.6889 10.855 11.7458 10.9405C11.8027 11.0259 11.8331 11.1263 11.8332 11.2289C11.8334 11.3316 11.8032 11.432 11.7465 11.5176C11.6898 11.6032 11.6091 11.6703 11.5145 11.7102ZM17.3211 15.3002L16.4797 14.9416L16.1199 14.0985C16.0214 13.8687 15.8576 13.6729 15.6488 13.5354C15.4401 13.3979 15.1955 13.3248 14.9455 13.325C14.6955 13.3253 14.4511 13.3989 14.2426 13.5368C14.0341 13.6748 13.8707 13.8709 13.7726 14.1008L13.4141 14.9416L12.5703 15.3014C12.3405 15.4 12.1447 15.5638 12.0072 15.7726C11.8697 15.9815 11.7965 16.2261 11.7968 16.4761C11.797 16.7261 11.8707 16.9706 12.0086 17.1791C12.1465 17.3877 12.3427 17.5512 12.5726 17.6493L13.4141 18.0078L13.7738 18.851C13.8723 19.0808 14.0361 19.2765 14.2449 19.414C14.4537 19.5515 14.6983 19.6247 14.9482 19.6244C15.1982 19.6242 15.4426 19.5505 15.6511 19.4126C15.8596 19.2747 16.023 19.0786 16.1211 18.8486L16.4797 18.0078L17.3211 17.6492L17.3235 17.648C17.553 17.5492 17.7484 17.3852 17.8857 17.1764C18.0229 16.9676 18.096 16.7231 18.0957 16.4733C18.0955 16.2234 18.0219 15.9791 17.8843 15.7706C17.7466 15.5621 17.5508 15.3986 17.3211 15.3002ZM16.8488 16.5459L15.7871 16.9989C15.6449 17.0599 15.5316 17.1731 15.4706 17.3153L15.0171 18.3776L15.5691 18.6131L14.8766 18.3776L14.423 17.3153C14.362 17.1731 14.2488 17.0598 14.1066 16.9989L13.0437 16.5453L12.8082 17.0973L13.0437 16.4042L14.1066 15.9507C14.2488 15.8897 14.362 15.7764 14.423 15.6343L14.8766 14.572L14.3246 14.3364L15.0171 14.572L15.4706 15.6343C15.5316 15.7764 15.6449 15.8897 15.7871 15.9507L16.8956 16.4751C16.8967 16.4904 16.8927 16.5056 16.8842 16.5184C16.8757 16.5312 16.8633 16.5409 16.8488 16.5459ZM19.7691 6.69633L18.7378 6.25629L18.2972 5.22271C18.1914 4.97023 18.0129 4.75494 17.7844 4.60418C17.5559 4.45341 17.2877 4.37399 17.014 4.37601H17.0128C16.7383 4.37397 16.4694 4.45361 16.2403 4.60479C16.0112 4.75598 15.8322 4.97187 15.7261 5.22504L15.2866 6.25629L14.253 6.6975C14.0017 6.80558 13.7875 6.98504 13.6371 7.21363C13.4867 7.44223 13.4067 7.70992 13.407 7.98354C13.4072 8.25717 13.4878 8.52471 13.6386 8.75303C13.7894 8.98135 14.0039 9.16039 14.2554 9.26801L15.2867 9.70805L15.7273 10.7416C15.8337 10.9942 16.0126 11.2094 16.2415 11.36C16.4704 11.5107 16.7389 11.5899 17.0129 11.5877H17.0141C17.2882 11.5896 17.5567 11.5099 17.7855 11.3587C18.0142 11.2075 18.1927 10.9917 18.2984 10.7387L18.7379 9.70805L19.7691 9.26801L19.7715 9.26682C20.0232 9.15899 20.2376 8.97963 20.3883 8.75101C20.5389 8.52238 20.619 8.25454 20.6188 7.98076C20.6185 7.70698 20.5379 7.4393 20.3868 7.21096C20.2358 6.98261 20.021 6.80368 19.7691 6.69633ZM19.2968 8.16469L18.0452 8.69907C17.9031 8.76006 17.7898 8.87333 17.7288 9.01548L17.1957 10.2653C17.182 10.3023 17.157 10.3342 17.1242 10.3561C17.0913 10.3781 17.0524 10.3892 17.0129 10.3877C16.9737 10.389 16.9351 10.3782 16.9024 10.3567C16.8697 10.3352 16.8444 10.3041 16.8301 10.2676L16.2957 9.01547C16.2347 8.87332 16.1214 8.76004 15.9793 8.69905L14.7289 8.16527C14.693 8.15027 14.6623 8.12504 14.6406 8.09273C14.6189 8.06042 14.6073 8.02245 14.607 7.98354C14.6067 7.94463 14.6179 7.90651 14.6392 7.87392C14.6604 7.84132 14.6908 7.8157 14.7265 7.80023L15.9792 7.26528C16.1214 7.20428 16.2346 7.091 16.2956 6.94886L16.8289 5.69903C16.843 5.66195 16.8683 5.63017 16.9012 5.60812C16.9342 5.58607 16.9732 5.57485 17.0129 5.57599C17.0519 5.57437 17.0905 5.5851 17.1231 5.60667C17.1557 5.62823 17.1807 5.65953 17.1945 5.69611L17.7289 6.9489C17.7899 7.09104 17.9032 7.20431 18.0453 7.2653L19.2957 7.79909C19.332 7.81388 19.3631 7.83911 19.385 7.87159C19.4069 7.90407 19.4186 7.94232 19.4188 7.9815C19.4189 8.02068 19.4074 8.05901 19.3857 8.09163C19.364 8.12425 19.333 8.14967 19.2968 8.16469Z" fill="#1D99FF"/>
</svg>
