<svg width="24" height="24" viewBox="0 0 24 24" fill="none" xmlns="http://www.w3.org/2000/svg">
<path d="M18.2039 3.99609H14.4C13.9228 3.99661 13.4652 4.18642 13.1278 4.52388C12.7903 4.86133 12.6005 5.31886 12.6 5.79609V18.2039C12.6005 18.6811 12.7903 19.1387 13.1278 19.4761C13.4652 19.8136 13.9228 20.0034 14.4 20.0039H18.2039C18.6811 20.0034 19.1387 19.8136 19.4761 19.4761C19.8136 19.1387 20.0034 18.6811 20.0039 18.2039V5.79609C20.0034 5.31886 19.8136 4.86133 19.4761 4.52388C19.1387 4.18642 18.6811 3.99661 18.2039 3.99609ZM18.8039 18.2039C18.8037 18.363 18.7404 18.5155 18.6279 18.6279C18.5155 18.7404 18.363 18.8037 18.2039 18.8039H14.4C14.2409 18.8037 14.0884 18.7404 13.976 18.6279C13.8635 18.5155 13.8002 18.363 13.8 18.2039V5.79609C13.8002 5.63703 13.8635 5.48453 13.976 5.37206C14.0884 5.25958 14.2409 5.1963 14.4 5.19609H18.2039C18.363 5.1963 18.5155 5.25958 18.6279 5.37206C18.7404 5.48453 18.8037 5.63703 18.8039 5.79609V18.2039ZM9.6 14.5441H5.79609C5.31886 14.5447 4.86133 14.7345 4.52388 15.0719C4.18642 15.4094 3.99661 15.8669 3.99609 16.3441V18.2039C3.99661 18.6811 4.18642 19.1387 4.52388 19.4761C4.86133 19.8136 5.31886 20.0034 5.79609 20.0039H9.6C10.0772 20.0034 10.5348 19.8136 10.8722 19.4761C11.2097 19.1387 11.3995 18.6811 11.4 18.2039V16.3441C11.3995 15.8669 11.2097 15.4094 10.8722 15.0719C10.5348 14.7345 10.0772 14.5447 9.6 14.5441ZM10.2 18.2039C10.1998 18.363 10.1365 18.5155 10.024 18.6279C9.91156 18.7404 9.75906 18.8037 9.6 18.8039H5.79609C5.63703 18.8037 5.48453 18.7404 5.37206 18.6279C5.25958 18.5155 5.1963 18.363 5.19609 18.2039V16.3441C5.1963 16.1851 5.25958 16.0326 5.37206 15.9201C5.48453 15.8076 5.63703 15.7443 5.79609 15.7441H9.6C9.75906 15.7443 9.91156 15.8076 10.024 15.9201C10.1365 16.0326 10.1998 16.1851 10.2 16.3441V18.2039ZM9.6 3.99609H5.79609C5.31886 3.99661 4.86133 4.18642 4.52388 4.52388C4.18642 4.86133 3.99661 5.31886 3.99609 5.79609V11.5441C3.99661 12.0213 4.18642 12.4789 4.52388 12.8163C4.86133 13.1538 5.31886 13.3436 5.79609 13.3441H9.6C10.0772 13.3436 10.5348 13.1538 10.8722 12.8163C11.2097 12.4789 11.3995 12.0213 11.4 11.5441V5.79609C11.3995 5.31886 11.2097 4.86133 10.8722 4.52388C10.5348 4.18642 10.0772 3.99661 9.6 3.99609ZM10.2 11.5441C10.1998 11.7032 10.1365 11.8557 10.024 11.9681C9.91156 12.0806 9.75906 12.1439 9.6 12.1441H5.79609C5.63703 12.1439 5.48453 12.0806 5.37206 11.9681C5.25958 11.8557 5.1963 11.7032 5.19609 11.5441V5.79609C5.1963 5.63703 5.25958 5.48453 5.37206 5.37206C5.48453 5.25958 5.63703 5.1963 5.79609 5.19609H9.6C9.75906 5.1963 9.91156 5.25958 10.024 5.37206C10.1365 5.48453 10.1998 5.63703 10.2 5.79609V11.5441Z" fill="#1D99FF"/>
</svg>
