<svg width="7" height="12" viewBox="0 0 7 12" fill="none" xmlns="http://www.w3.org/2000/svg">
<path d="M5.47461 11.1254L0.974609 6.62539C0.891276 6.54206 0.828609 6.44606 0.786609 6.33739C0.745275 6.22939 0.724609 6.11706 0.724609 6.00039C0.724609 5.88372 0.745275 5.77106 0.786609 5.66239C0.828609 5.55439 0.891276 5.45872 0.974609 5.37539L5.47461 0.875391C5.62461 0.725391 5.79961 0.650391 5.99961 0.650391C6.19961 0.650391 6.37461 0.725391 6.52461 0.875391C6.67461 1.02539 6.74961 1.20039 6.74961 1.40039C6.74961 1.60039 6.67461 1.77539 6.52461 1.92539L2.44961 6.00039L6.52461 10.0754C6.67461 10.2254 6.74961 10.4004 6.74961 10.6004C6.74961 10.8004 6.67461 10.9754 6.52461 11.1254C6.37461 11.2754 6.19961 11.3504 5.99961 11.3504C5.79961 11.3504 5.62461 11.2754 5.47461 11.1254Z" fill="#61B8FF"/>
</svg>
