<svg width="16" height="16" viewBox="0 0 16 16" fill="none" xmlns="http://www.w3.org/2000/svg">
<mask id="mask0_1819_18015" style="mask-type:alpha" maskUnits="userSpaceOnUse" x="0" y="0" width="16" height="16">
<rect x="16" width="16" height="16" transform="rotate(90 16 0)" fill="#D9D9D9"/>
</mask>
<g mask="url(#mask0_1819_18015)">
<path d="M4.58307 8.98307L7.58307 5.98307C7.63863 5.92752 7.70263 5.88574 7.77507 5.85774C7.84707 5.83018 7.92196 5.81641 7.99974 5.81641C8.07752 5.81641 8.15263 5.83018 8.22507 5.85774C8.29707 5.88574 8.36085 5.92752 8.41641 5.98307L11.4164 8.98307C11.5164 9.08307 11.5664 9.19974 11.5664 9.33307C11.5664 9.46641 11.5164 9.58307 11.4164 9.68307C11.3164 9.78307 11.1997 9.83307 11.0664 9.83307C10.9331 9.83307 10.8164 9.78307 10.7164 9.68307L7.99974 6.96641L5.28307 9.68307C5.18307 9.78307 5.06641 9.83307 4.93307 9.83307C4.79974 9.83307 4.68307 9.78307 4.58307 9.68307C4.48307 9.58307 4.43307 9.46641 4.43307 9.33307C4.43307 9.19974 4.48307 9.08307 4.58307 8.98307Z" fill="#97A6B2"/>
</g>
</svg>
