<svg width="16" height="16" viewBox="0 0 16 16" fill="none" xmlns="http://www.w3.org/2000/svg">
<mask id="mask0_1819_20226" style="mask-type:alpha" maskUnits="userSpaceOnUse" x="0" y="0" width="16" height="16">
<rect y="16" width="16" height="16" transform="rotate(-90 0 16)" fill="#D9D9D9"/>
</mask>
<g mask="url(#mask0_1819_20226)">
<path d="M11.4169 7.01693L8.41693 10.0169C8.36137 10.0725 8.29737 10.1143 8.22493 10.1423C8.15293 10.1698 8.07804 10.1836 8.00026 10.1836C7.92248 10.1836 7.84737 10.1698 7.77493 10.1423C7.70293 10.1143 7.63915 10.0725 7.58359 10.0169L4.58359 7.01693C4.48359 6.91693 4.43359 6.80026 4.43359 6.66693C4.43359 6.53359 4.48359 6.41693 4.58359 6.31693C4.68359 6.21693 4.80026 6.16693 4.93359 6.16693C5.06693 6.16693 5.18359 6.21693 5.28359 6.31693L8.00026 9.03359L10.7169 6.31693C10.8169 6.21693 10.9336 6.16693 11.0669 6.16693C11.2003 6.16693 11.3169 6.21693 11.4169 6.31693C11.5169 6.41693 11.5669 6.53359 11.5669 6.66693C11.5669 6.80026 11.5169 6.91693 11.4169 7.01693Z" fill="#97A6B2"/>
</g>
</svg>
