<svg width="89" height="20" viewBox="0 0 89 20" fill="none" xmlns="http://www.w3.org/2000/svg">
<path d="M31.5141 0.158229C31.894 -0.0477182 32.349 0.0150693 32.7651 0C33.1399 0 33.5974 -1.37724e-06 33.8507 0.316454C34.0056 0.618859 34.0718 0.956892 34.042 1.29345C34.042 2.62457 34.042 3.95318 34.042 5.2843C34.5383 4.57604 35.4042 4.21438 36.2545 4.10136C37.5262 3.97578 38.9065 4.08629 39.9817 4.82218C41.0156 5.50532 41.5326 6.70333 41.6696 7.87371C41.7322 8.38534 41.7555 8.9008 41.7394 9.4158C41.7394 10.2522 41.7833 11.096 41.6179 11.9274C41.5414 12.441 41.3575 12.9339 41.0774 13.3758C40.7973 13.8177 40.4271 14.1991 39.9895 14.4967C38.8238 15.2501 37.3737 15.3707 36.0141 15.323C34.6132 15.2778 33.1321 14.8382 32.1965 13.7708C31.4055 12.8968 31.1626 11.6988 31.1367 10.5661C31.1367 7.41996 31.1367 4.27382 31.1367 1.12769C31.1652 0.783605 31.1807 0.356641 31.5141 0.158229ZM35.8229 6.72844C35.3676 6.75442 34.9308 6.9128 34.5693 7.18303C34.2412 7.52395 34.0567 7.97208 34.0523 8.43881C34.0239 9.03405 34.0523 9.62928 34.0368 10.2245C34.0213 10.8198 34.011 11.4301 34.3496 11.9349C34.6882 12.4397 35.2982 12.603 35.8591 12.6431C36.3795 12.707 36.9069 12.6926 37.4228 12.6004C37.8321 12.5442 38.2066 12.3462 38.4774 12.0429C38.785 11.6385 38.8238 11.1136 38.8289 10.6289C38.8289 9.89802 38.8445 9.16465 38.8289 8.43379C38.7979 7.8712 38.5937 7.23327 38.0354 6.96704C37.3453 6.65812 36.5595 6.66817 35.8229 6.72593V6.72844Z" fill="#00437A"/>
<path d="M22.4824 4.24227C23.3037 4.07496 24.1448 4.01918 24.9819 4.0765C26.1734 4.15436 27.4193 4.55872 28.1947 5.48799C28.9701 6.41727 29.1847 7.73332 29.1769 8.93384C29.1201 9.41103 29.1511 9.93846 28.8745 10.3504C28.66 10.6618 28.2516 10.7045 27.8975 10.7145C27.7889 10.7145 27.6803 10.7321 27.5718 10.7346C25.7237 10.7346 23.8756 10.7346 22.0275 10.7346C22.0275 10.8928 22.0275 11.0511 22.0275 11.2093C22.0484 11.476 22.1488 11.731 22.3163 11.9433C22.4838 12.1556 22.7113 12.3159 22.9709 12.4048C23.8239 12.6745 24.7271 12.7602 25.6177 12.656C26.4062 12.5984 27.1902 12.4919 27.9647 12.337C28.1114 12.2964 28.2682 12.3085 28.4064 12.3713C28.5446 12.434 28.6548 12.5432 28.7168 12.6786C28.8512 13.0955 28.7815 13.545 28.7918 13.9745C28.8052 14.1607 28.7587 14.3463 28.6586 14.5056C28.5586 14.6649 28.41 14.79 28.2335 14.8636C27.504 15.1096 26.7428 15.2558 25.9718 15.2981C24.3822 15.3659 22.7047 15.3609 21.2469 14.6602C20.7615 14.4215 20.3366 14.0813 20.0027 13.6639C19.6689 13.2466 19.4343 12.7625 19.3161 12.2466C19.0421 11.2168 19.161 10.1444 19.1351 9.09207C19.099 7.96438 19.2851 6.77642 19.9468 5.82705C20.5545 5.00537 21.4609 4.43886 22.4824 4.24227ZM22.7099 6.81158C22.5029 6.94431 22.3329 7.1248 22.2152 7.33691C22.0975 7.54903 22.0356 7.78618 22.0352 8.02717C22.0352 8.15777 22.0352 8.27833 22.0172 8.42148C22.3323 8.4522 22.6493 8.46144 22.9658 8.44911H26.4164C26.4663 7.99953 26.3618 7.54654 26.1192 7.16069C25.9564 6.97505 25.7571 6.82296 25.5329 6.7134C25.3087 6.60383 25.0642 6.53901 24.8139 6.52275C24.116 6.4449 23.3457 6.45996 22.7099 6.81158Z" fill="#00437A"/>
<path d="M46.3671 4.40491C47.1659 4.14532 48.0069 4.03039 48.8484 4.06585C50.04 4.04576 51.3039 4.30193 52.2319 5.07047C53.1598 5.839 53.5578 7.04706 53.6018 8.19986C53.6525 8.7095 53.6377 9.22329 53.5578 9.7294C53.501 10.0986 53.3381 10.513 52.9375 10.6361C52.4742 10.7273 52.0009 10.761 51.5288 10.7365H46.4937C46.4937 10.8948 46.4937 11.053 46.4937 11.2112C46.5088 11.3967 46.5623 11.5774 46.6512 11.7423C46.74 11.9072 46.8623 12.0529 47.0107 12.1706C47.6103 12.6051 48.3883 12.6302 49.1043 12.6855C49.432 12.7043 49.7609 12.6933 50.0865 12.6528C50.875 12.5953 51.659 12.4888 52.4335 12.3339C52.5802 12.2932 52.737 12.3054 52.8752 12.3682C53.0134 12.4309 53.1236 12.54 53.1856 12.6754C53.3226 13.0924 53.2503 13.5419 53.2606 13.9739C53.2733 14.1587 53.227 14.3428 53.128 14.501C53.029 14.6592 52.8821 14.7839 52.7075 14.858C51.9816 15.1046 51.2238 15.2517 50.4561 15.295C48.8588 15.3653 47.1735 15.3603 45.7105 14.6545C45.2278 14.4166 44.8051 14.078 44.4727 13.663C44.1403 13.2479 43.9063 12.7666 43.7875 12.2535C43.5109 11.2162 43.6298 10.1413 43.6039 9.08393C43.5354 8.04616 43.7578 7.00977 44.2475 6.08513C44.7194 5.29253 45.4732 4.69494 46.3671 4.40491ZM46.9383 6.98929C46.6648 7.27012 46.509 7.64001 46.5015 8.02656C46.5015 8.15716 46.486 8.27772 46.4808 8.41837C46.5988 8.43703 46.718 8.44877 46.8375 8.45353H50.8878C50.9033 7.95122 50.8568 7.40621 50.482 7.03701C50.0167 6.58242 49.3188 6.48698 48.6907 6.50205C48.0626 6.51712 47.4035 6.56986 46.9383 6.98929Z" fill="#00437A"/>
<path d="M71.453 4.08357C72.4869 4.03585 73.5441 4.03585 74.5185 4.39751C75.3544 4.67956 76.0563 5.24727 76.4933 5.99486C76.8594 6.67424 77.0668 7.42375 77.1007 8.18995C77.1651 8.8397 77.11 9.49539 76.9379 10.1264C76.8925 10.2643 76.8093 10.3877 76.6973 10.4832C76.5853 10.5788 76.4487 10.6429 76.302 10.6689C75.9728 10.7179 75.64 10.7414 75.3069 10.7392C73.5338 10.7392 71.758 10.7392 69.9849 10.7392C69.9471 11.1163 70.0178 11.4963 70.1891 11.8367C70.4682 12.2988 71.0291 12.4847 71.5409 12.5902C72.9625 12.8413 74.41 12.6178 75.8135 12.3591C75.9702 12.3071 76.1404 12.3075 76.2968 12.3603C76.4533 12.4131 76.587 12.5152 76.6768 12.6505C76.7804 13.1669 76.7961 13.6963 76.7233 14.2177C76.6936 14.3916 76.6111 14.553 76.4862 14.681C76.3614 14.809 76.2 14.8978 76.0229 14.936C74.8408 15.2634 73.6107 15.3958 72.3835 15.3278C71.2282 15.2976 70.0366 15.1269 69.0234 14.5743C68.2938 14.1702 67.7331 13.5303 67.4389 12.766C67.3385 12.4954 67.2607 12.2174 67.2063 11.9347C67.0228 10.9753 67.1055 9.99575 67.0874 9.02378C67.0719 7.7881 67.3174 6.46451 68.1756 5.50761C68.9794 4.57332 70.2434 4.179 71.453 4.08357ZM70.3674 7.05222C70.003 7.42142 69.9745 7.96642 69.9901 8.44864C71.4479 8.44864 72.9083 8.44864 74.3661 8.44864C74.3661 7.984 74.366 7.46663 74.0223 7.09994C73.5829 6.59763 72.854 6.5047 72.213 6.47959C71.5642 6.49968 70.8301 6.55995 70.3674 7.05473V7.05222Z" fill="#00437A"/>
<path d="M0.406036 4.69379C0.462544 4.58557 0.548641 4.49456 0.65488 4.43076C0.76112 4.36696 0.883391 4.33284 1.00828 4.33213C1.39971 4.30595 1.79234 4.30092 2.18434 4.31706C2.47337 4.30198 2.75791 4.39145 2.98304 4.56821C3.1385 4.73567 3.24317 4.9417 3.28545 5.16345C3.52583 6.79596 3.71711 8.42846 3.93423 10.0685C4.02728 10.7416 4.10741 11.4172 4.1927 12.0777C4.2444 12.3515 4.278 12.7006 4.56491 12.8312C4.77338 12.884 4.99228 12.884 5.20076 12.8312C5.52127 12.678 5.54711 12.2862 5.59622 11.9823C5.81076 10.3347 6.01496 8.68464 6.22949 7.03707C6.3303 6.2836 6.37941 5.43218 6.96873 4.86457C7.50894 4.36226 8.31539 4.29194 9.03654 4.28943C9.75768 4.28692 10.5021 4.3698 11.0165 4.8696C11.4481 5.29656 11.5748 5.90938 11.6575 6.48201C11.8918 8.34726 12.1296 10.2125 12.3709 12.0777C12.4226 12.354 12.4665 12.7056 12.7638 12.8312C12.9624 12.8716 13.1674 12.8716 13.366 12.8312C13.6245 12.7383 13.6684 12.4545 13.7434 12.236C13.8442 11.4197 13.9553 10.606 14.0613 9.79224C14.2491 8.34893 14.4361 6.90646 14.6222 5.46483C14.6842 5.13582 14.7256 4.76411 14.9892 4.523C15.3072 4.25427 15.7647 4.27185 16.1472 4.27185C16.5297 4.27185 16.9226 4.22915 17.2897 4.38738C17.3745 4.42773 17.4472 4.48871 17.5006 4.5644C17.5541 4.64009 17.5865 4.72792 17.5947 4.81937C17.6073 5.18048 17.5787 5.54183 17.5094 5.89682C17.1966 8.06178 16.8916 10.2267 16.5789 12.3917C16.5117 13.0613 16.2784 13.705 15.8991 14.2678C15.5507 14.7 15.0611 15.0039 14.5111 15.1293C13.8974 15.2739 13.264 15.3231 12.6345 15.2749C11.9359 15.2686 11.2684 14.9931 10.7787 14.5089C10.3056 14.0066 10.1532 13.3034 10.0239 12.6504C9.78353 10.7466 9.55091 8.84287 9.2976 6.94163L9.21747 6.74824C9.06709 6.71101 8.91031 6.70502 8.75739 6.73066C8.51959 7.31083 8.56869 7.95378 8.44462 8.55655C8.28092 9.88432 8.11377 11.2113 7.94318 12.5374C7.8217 13.3511 7.59683 14.2477 6.8886 14.7726C6.11318 15.3377 5.09478 15.3176 4.17461 15.2749C3.42503 15.1996 2.62376 14.9711 2.13265 14.3859C1.5821 13.7404 1.44769 12.8789 1.32879 12.0777C1.14269 10.7441 0.948834 9.41299 0.760146 8.08187C0.638663 7.24803 0.52752 6.41169 0.398282 5.57032C0.341305 5.28051 0.34394 4.98261 0.406036 4.69379Z" fill="#00437A"/>
<path d="M55.1555 4.4159C55.4955 4.31743 55.8514 4.28165 56.2049 4.31041C56.6262 4.31041 57.0967 4.2853 57.4508 4.56157C57.7019 4.82618 57.8634 5.1593 57.9135 5.51595C58.4028 7.68258 58.8913 9.84838 59.379 12.0133C59.4617 12.3499 59.5806 12.7869 59.9838 12.8673C60.2992 12.8949 60.7024 12.9803 60.9376 12.7115C61.1135 12.4574 61.2283 12.1682 61.2736 11.8652C61.701 9.96307 62.1318 8.06099 62.566 6.15891C62.6391 5.68326 62.7782 5.21942 62.9796 4.78007C63.2122 4.37822 63.7369 4.31041 64.1686 4.31543C64.6002 4.32046 65.0526 4.26269 65.4609 4.41338C65.7453 4.51636 65.8047 4.86044 65.7556 5.11913C65.6548 5.71688 65.4971 6.30207 65.3576 6.8948C64.7088 9.63238 64.0652 12.37 63.4138 15.1051C63.0907 16.4311 62.5402 17.7623 61.483 18.6915C60.5577 19.5404 59.2756 19.9147 58.0324 20.0001C57.8907 20.0047 57.7505 19.9701 57.6283 19.9003C57.5061 19.8305 57.4069 19.7283 57.3422 19.6057C57.1619 19.183 57.0503 18.7357 57.0114 18.2796C56.9966 18.129 57.0377 17.9781 57.1273 17.8542C57.2169 17.7304 57.349 17.6417 57.4999 17.604C57.9807 17.4996 58.4486 17.3455 58.8957 17.1444C59.2661 16.9518 59.5891 16.6834 59.8426 16.3578C60.096 16.0322 60.2739 15.657 60.3638 15.2583C59.6659 15.3487 58.9215 15.3863 58.2598 15.1176C57.8305 14.9375 57.475 14.6238 57.2492 14.226C56.8072 13.5052 56.6443 12.6688 56.4427 11.8652C55.9878 9.93796 55.5303 8.01244 55.0702 6.08859C54.9665 5.71328 54.8897 5.33145 54.8402 4.94584C54.8299 4.83666 54.8547 4.72706 54.9111 4.63215C54.9676 4.53724 55.053 4.46168 55.1555 4.4159Z" fill="#00437A"/>
<path d="M79.7052 4.55098C79.9682 4.36794 80.2903 4.28323 80.6124 4.31238H85.1228C85.7424 4.27738 86.3639 4.32898 86.9683 4.46558C87.4079 4.57546 87.7873 4.84519 88.0281 5.21905C88.164 5.46682 88.2591 5.73378 88.3098 6.01019C88.3874 6.91434 88.4417 7.9491 87.8187 8.70006C87.2268 9.40329 86.3325 9.74235 85.5261 10.1542C84.3086 10.752 83.0912 11.3548 81.8738 11.95C81.678 12.0257 81.5122 12.1604 81.4008 12.3343L81.5197 12.5201C83.4195 12.5528 85.3193 12.5201 87.2062 12.5352C87.5473 12.5352 87.9635 12.5678 88.1729 12.8717C88.3977 13.2234 88.3305 13.6553 88.3383 14.0471C88.3383 14.3711 88.2659 14.7604 87.948 14.9337C87.6301 15.107 87.1725 15.0618 86.7926 15.0719H82.3623C81.5042 15.0719 80.5918 15.1346 79.8112 14.7253C79.5514 14.5739 79.33 14.3678 79.1631 14.1222C78.9962 13.8766 78.8882 13.5978 78.8471 13.3062C78.7272 12.6329 78.7877 11.941 79.0228 11.297C79.3252 10.5586 80.005 10.0412 80.7158 9.68207C82.0599 9.01233 83.4066 8.34928 84.7558 7.69293C85.0618 7.56097 85.3544 7.40119 85.6294 7.21573C85.6689 7.16879 85.6932 7.11151 85.6992 7.05115C85.7052 6.9908 85.6926 6.93008 85.6631 6.87667C83.9235 6.82895 82.1814 6.87667 80.4393 6.85156C80.1317 6.82895 79.7724 6.76616 79.6044 6.48487C79.4732 6.15227 79.4236 5.79453 79.4596 5.44007C79.4674 5.12863 79.4751 4.78455 79.7052 4.55098Z" fill="#00437A"/>
</svg>
