<svg width="45" height="24" viewBox="0 0 45 24" fill="none" xmlns="http://www.w3.org/2000/svg">
<path d="M23.5205 9.96655L23.3804 10.2032C23.2176 10.4772 22.9838 10.7047 22.7024 10.8629C22.421 11.021 22.1019 11.1043 21.7771 11.1043C21.4523 11.1043 21.1332 11.021 20.8519 10.8629C20.5705 10.7047 20.3366 10.4772 20.1739 10.2032L17.3434 5.41338L16.0922 3.29679C15.9909 3.12495 15.9377 2.93015 15.9379 2.73193C15.9382 2.53371 15.992 2.33904 16.0938 2.16748C16.1956 1.99591 16.342 1.85349 16.5181 1.7545C16.6942 1.65551 16.894 1.60344 17.0972 1.60352H15.094H3.72766C3.52437 1.60344 3.32463 1.65551 3.14851 1.7545C2.97238 1.85349 2.82605 1.99591 2.72422 2.16748C2.62239 2.33904 2.56864 2.53371 2.56836 2.73193C2.56808 2.93015 2.62129 3.12495 2.72263 3.29679L13.4771 21.4961C13.6399 21.7702 13.8737 21.9977 14.1551 22.1558C14.4365 22.314 14.7556 22.3972 15.0804 22.3972C15.4051 22.3972 15.7242 22.314 16.0056 22.1558C16.287 21.9977 16.5208 21.7702 16.6836 21.4961L18.4954 18.4429C18.6582 18.1689 18.892 17.9414 19.1734 17.7832C19.4548 17.6251 19.7739 17.5418 20.0986 17.5418C20.4234 17.5418 20.7425 17.6251 21.0239 17.7832C21.3053 17.9414 21.5391 18.1689 21.7019 18.4429L21.8386 18.6762C22.0014 18.9503 22.2352 19.1778 22.5166 19.3359C22.798 19.4941 23.1171 19.5773 23.4419 19.5773C23.7667 19.5773 24.0858 19.4941 24.3672 19.3359C24.6486 19.1778 24.8824 18.9503 25.0452 18.6762L28.4636 12.9164L26.727 9.97988C26.5654 9.70516 26.3326 9.47669 26.0519 9.31736C25.7712 9.15804 25.4525 9.07347 25.1277 9.07212C24.8029 9.07077 24.4835 9.15269 24.2014 9.30967C23.9193 9.46666 23.6845 9.69318 23.5205 9.96655Z" fill="#00E08F"/>
<path d="M39.8493 1.61719H33.173C33.3747 1.62016 33.5721 1.67456 33.7455 1.77496C33.9189 1.87537 34.0623 2.01829 34.1615 2.18951C34.2608 2.36073 34.3123 2.55429 34.311 2.75095C34.3097 2.9476 34.2556 3.1405 34.1541 3.31046L33.6619 4.14043L28.459 12.9101L30.199 15.8533C30.3618 16.1274 30.5956 16.3549 30.877 16.513C31.1584 16.6712 31.4775 16.7544 31.8022 16.7544C32.127 16.7544 32.4461 16.6712 32.7275 16.513C33.0089 16.3549 33.2427 16.1274 33.4055 15.8533L40.8441 3.31379C40.9458 3.1426 40.9997 2.94836 41.0003 2.75049C41.0009 2.55263 40.9482 2.35807 40.8475 2.18629C40.7468 2.01452 40.6016 1.87154 40.4264 1.77167C40.2512 1.67179 40.0522 1.61852 39.8493 1.61719Z" fill="#714AFF"/>
<path d="M34.1564 3.30655C34.2578 3.13659 34.3119 2.9437 34.3132 2.74704C34.3145 2.55039 34.263 2.35683 34.1638 2.18561C34.0646 2.01439 33.9211 1.87147 33.7477 1.77106C33.5743 1.67066 33.3769 1.61626 33.1753 1.61328H33.1548H19.6279H17.0948C16.8916 1.61321 16.6918 1.66528 16.5157 1.76427C16.3396 1.86326 16.1932 2.00568 16.0914 2.17725C15.9896 2.34881 15.9358 2.54347 15.9355 2.74169C15.9353 2.93992 15.9885 3.13472 16.0898 3.30655L17.341 5.42314L20.1715 10.213C20.3342 10.487 20.5681 10.7145 20.8494 10.8726C21.1308 11.0308 21.4499 11.114 21.7747 11.114C22.0995 11.114 22.4186 11.0308 22.7 10.8726C22.9814 10.7145 23.2152 10.487 23.378 10.213L23.5181 9.97631C23.6809 9.70228 23.9147 9.47478 24.1961 9.31663C24.4775 9.15848 24.7966 9.07523 25.1214 9.07523C25.4462 9.07523 25.7653 9.15848 26.0466 9.31663C26.328 9.47478 26.5618 9.70228 26.7246 9.97631L28.4612 12.9129L33.6641 4.14319L34.1564 3.30655Z" fill="#1D99FF"/>
</svg>
