<svg width="24" height="24" viewBox="0 0 24 24" fill="none" xmlns="http://www.w3.org/2000/svg">
<path d="M14.6039 3.99609H9.39609C7.9644 3.99765 6.5918 4.56708 5.57944 5.57944C4.56708 6.5918 3.99765 7.9644 3.99609 9.39609V14.6039C3.99765 16.0356 4.56708 17.4082 5.57944 18.4206C6.5918 19.4329 7.9644 20.0023 9.39609 20.0039H14.6039C16.0356 20.0023 17.4082 19.4329 18.4206 18.4206C19.4329 17.4082 20.0023 16.0356 20.0039 14.6039V9.39609C20.0023 7.9644 19.4329 6.5918 18.4206 5.57944C17.4082 4.56708 16.0356 3.99765 14.6039 3.99609ZM18.8039 14.6039C18.8026 15.7174 18.3596 16.7849 17.5723 17.5723C16.7849 18.3596 15.7174 18.8026 14.6039 18.8039H9.39609C8.2826 18.8026 7.21509 18.3596 6.42773 17.5723C5.64037 16.7849 5.19744 15.7174 5.19609 14.6039V9.39609C5.19744 8.2826 5.64037 7.21509 6.42773 6.42773C7.21509 5.64037 8.2826 5.19744 9.39609 5.19609H14.6039C15.7174 5.19744 16.7849 5.64037 17.5723 6.42773C18.3596 7.21509 18.8026 8.2826 18.8039 9.39609V14.6039Z" fill="#C9C9C9"/>
</svg>
