<svg width="527" height="363" viewBox="0 0 527 363" fill="none" xmlns="http://www.w3.org/2000/svg">
<path fill-rule="evenodd" clip-rule="evenodd" d="M494.52 28.218C498.938 28.218 502.52 31.7997 502.52 36.218V322.446C502.52 326.864 498.938 330.446 494.52 330.446H108.82C104.402 330.446 100.82 326.864 100.82 322.446V36.218C100.82 31.7997 104.402 28.218 108.82 28.218H494.52Z" fill="#0C2F4B"/>
<path fill-rule="evenodd" clip-rule="evenodd" d="M490.309 328.645L490.505 329.914L490.587 330.472H347.365L347.293 330.476C347.246 330.481 347.199 330.492 347.153 330.507C331.964 335.689 318.45 338.846 306.614 339.981C306.411 340.001 306.228 340.114 306.119 340.287L305.497 341.279L304.813 342.36L304.141 343.413L303.481 344.438L302.672 345.68L301.882 346.878L301.263 347.805C300.855 348.414 300.454 349.004 300.061 349.575L299.538 350.331L299.025 351.064L298.541 351.748L298.065 352.411L298.026 352.471C297.886 352.718 297.92 353.028 298.11 353.239L298.16 353.29L304.299 358.773L304.028 358.817C297.699 359.82 292.382 359.518 288.072 357.925C284.937 356.766 285.315 350.401 289.414 338.936L289.75 338.008L290.102 337.058L290.283 336.575L290.659 335.592L290.853 335.093L291.252 334.078L291.458 333.562L291.882 332.515L292.1 331.983L292.547 330.903C292.775 330.358 293.009 329.804 293.249 329.242L293.737 328.108L294.241 326.953C294.411 326.564 294.585 326.171 294.761 325.775C294.909 325.443 294.759 325.053 294.427 324.905C294.095 324.757 293.706 324.906 293.558 325.239L292.934 326.653L292.737 327.104L292.35 327.996L291.973 328.876L291.604 329.743L291.246 330.598L290.896 331.44L290.556 332.269L290.226 333.086L289.905 333.89L289.594 334.682L289.144 335.846L288.857 336.606L288.578 337.354L288.31 338.09L288.051 338.813L287.68 339.873L287.445 340.565L287.219 341.244C287.145 341.468 287.073 341.69 287.003 341.91L286.796 342.565L286.599 343.206L286.412 343.835L286.322 344.145L286.149 344.755L286.066 345.056L285.908 345.648L285.759 346.227C285.687 346.513 285.619 346.795 285.554 347.072L285.429 347.62C285.389 347.801 285.351 347.979 285.314 348.156L285.209 348.679C285.175 348.851 285.144 349.022 285.113 349.19L285.027 349.688C284.987 349.934 284.95 350.176 284.917 350.412L284.855 350.88C284.581 353.108 284.649 354.902 285.062 356.263C280.159 355.299 277.111 353.292 275.841 350.216C275.825 350.139 275.796 350.066 275.754 349.999C275.353 348.945 275.154 347.77 275.154 346.472L275.155 346.307L275.162 345.969L275.177 345.621L275.187 345.443L275.213 345.079L275.229 344.893L275.266 344.513C275.28 344.385 275.295 344.255 275.311 344.123L275.363 343.723C275.381 343.587 275.401 343.45 275.422 343.311L275.489 342.89L275.563 342.458L275.644 342.015L275.733 341.563L275.83 341.099L275.934 340.625L276.045 340.141L276.164 339.646L276.29 339.141L276.423 338.626L276.564 338.1L276.712 337.563L276.868 337.016L277.031 336.459L277.202 335.891L277.38 335.313L277.565 334.725L277.857 333.823L278.061 333.208L278.273 332.583L278.604 331.626L278.834 330.976L279.071 330.314L279.316 329.643L279.568 328.961L279.827 328.268L280.231 327.21L280.651 326.129L281.087 325.024L281.388 324.275L281.852 323.131L282.171 322.356L282.498 321.57L282.832 320.774L283.346 319.561L283.699 318.739L284.426 317.065L284.808 316.194L285.206 315.295L285.62 314.366C285.769 314.034 285.621 313.644 285.289 313.495C284.958 313.346 284.568 313.494 284.42 313.826L284.001 314.765L283.4 316.124L282.818 317.458L282.44 318.333L281.888 319.624L281.53 320.471L281.181 321.307L280.839 322.131L280.506 322.945L280.021 324.143L279.555 325.316L279.107 326.465L278.818 327.216L278.538 327.956L278.265 328.685L278.001 329.403L277.62 330.458L277.376 331.148L277.14 331.826L276.802 332.823L276.586 333.474L276.379 334.113L276.131 334.896L275.896 335.662L275.717 336.263L275.546 336.852L275.344 337.572L275.155 338.275L275.013 338.825L274.879 339.364L274.753 339.892L274.693 340.152L274.579 340.663L274.473 341.162L274.376 341.651L274.286 342.129L274.244 342.363L274.167 342.824L274.098 343.274C274.066 343.496 274.036 343.714 274.01 343.928L273.961 344.35L273.92 344.761C273.902 344.963 273.887 345.162 273.874 345.356L273.854 345.739C273.843 345.991 273.838 346.235 273.838 346.472C273.838 347.456 273.94 348.378 274.143 349.239C268.395 346.921 265.313 343.985 264.804 340.468C264.748 340.083 264.734 339.627 264.76 339.1L264.779 338.806L264.792 338.654L264.823 338.339L264.862 338.01C264.891 337.786 264.926 337.553 264.965 337.31L265.029 336.939L265.101 336.555L265.182 336.156L265.27 335.744L265.367 335.318L265.472 334.878L265.585 334.424L265.706 333.956L265.836 333.475L265.974 332.979L266.12 332.47L266.274 331.947L266.436 331.41L266.606 330.859L266.785 330.295L266.972 329.717L267.268 328.824L267.475 328.212L267.691 327.585L267.914 326.945L268.265 325.96L268.51 325.286L268.762 324.598L269.023 323.896L269.429 322.818L269.853 321.709L270.297 320.57L270.758 319.4L271.076 318.603L271.568 317.382L272.079 316.13L272.429 315.279L272.971 313.976L273.53 312.643L274.338 310.741L274.987 309.23L275.678 307.636C275.824 307.302 275.671 306.914 275.338 306.768C275.005 306.622 274.617 306.775 274.472 307.109L273.769 308.729L273.11 310.264L272.473 311.762L271.857 313.225L271.263 314.651L270.691 316.042L270.14 317.397L269.785 318.28L269.271 319.575L268.94 320.418L268.619 321.246L268.005 322.853L267.713 323.632L267.293 324.772L267.025 325.512L266.767 326.237L266.518 326.945L266.279 327.638L266.05 328.315L265.83 328.976L265.62 329.621L265.419 330.25L265.323 330.559L265.137 331.165L264.96 331.755L264.794 332.33L264.637 332.888L264.489 333.431L264.351 333.958L264.223 334.47L264.105 334.966L263.996 335.446C263.961 335.604 263.928 335.759 263.897 335.911L263.807 336.36L263.727 336.793C263.44 338.424 263.364 339.712 263.501 340.657C263.563 341.085 263.656 341.503 263.78 341.912C260.542 340.022 258.178 337.809 256.677 335.277C256.459 334.91 256.309 334.358 256.225 333.654L256.197 333.382L256.174 333.097L256.165 332.949L256.152 332.644L256.143 332.325V331.994L256.148 331.651L256.158 331.295L256.174 330.928L256.196 330.55L256.224 330.161L256.258 329.761L256.297 329.352L256.342 328.932L256.392 328.504L256.449 328.066L256.51 327.619L256.577 327.165L256.65 326.702L256.728 326.232L256.811 325.755L256.9 325.271L256.994 324.78L257.094 324.283L257.199 323.781L257.308 323.273L257.483 322.503L257.606 321.983L257.734 321.46L257.866 320.933L258.004 320.402L258.147 319.869L258.295 319.333L258.448 318.795L258.605 318.255L258.769 317.707L258.873 317.368L259.087 316.686C259.159 316.46 259.232 316.235 259.306 316.011L259.529 315.344C259.679 314.902 259.832 314.465 259.988 314.033L260.223 313.39L260.343 313.072L260.584 312.442C260.665 312.233 260.747 312.026 260.83 311.821L261.079 311.209C261.162 311.007 261.247 310.807 261.331 310.607L261.588 310.016C262.017 309.037 262.461 308.102 262.917 307.215L263.191 306.689C265.123 303.048 267.253 300.289 269.404 298.864C273.211 296.342 283.696 296.195 300.751 298.45L302.296 298.659L303.346 298.805C303.522 298.83 303.699 298.855 303.876 298.88L305.491 299.114L307.141 299.361L308.261 299.533C308.449 299.562 308.638 299.591 308.827 299.621L310.547 299.894C312.574 300.219 314.673 300.571 316.843 300.95L318.721 301.28C319.669 301.449 320.629 301.622 321.603 301.8L323.568 302.163L325.568 302.539L327.603 302.928L330.195 303.432L331.788 303.746L333.993 304.187C334.094 304.208 334.198 304.204 334.298 304.176L342.838 301.826L351.334 299.499L356.918 297.975L363.807 296.103L370.595 294.265L377.282 292.463L383.869 290.696L391.641 288.622L396.741 287.267L403.026 285.605L410.436 283.658L415.295 282.388L420.007 281.161L425.641 279.702L429.908 278.603L436.983 276.792L437.866 276.574C466.305 269.76 483.746 286.993 490.309 328.645ZM407.663 270.233L443.312 274.214L442.876 274.272C441.063 274.528 439.203 274.889 437.296 275.355L436.658 275.514L432.097 276.68L427.645 277.824L421.616 279.382L417.025 280.574L413.931 281.381L410.811 282.197L407.664 283.022L407.663 270.233ZM280.761 113.433C285.269 135.912 294.848 154.321 309.499 168.644C309.675 168.815 309.931 168.875 310.163 168.799L311.154 168.478L312.124 168.169L312.755 167.973L313.675 167.691L314.273 167.512L314.857 167.339L315.428 167.174L316.259 166.94L316.796 166.793L317.32 166.652L317.831 166.519L318.572 166.332L319.05 166.216L319.513 166.107L319.964 166.005L320.401 165.911L320.824 165.823L321.434 165.704L321.823 165.634L322.199 165.571L322.561 165.515L323.079 165.443L323.408 165.405L323.722 165.373L324.023 165.348L324.31 165.33L324.584 165.319C325.206 165.302 325.716 165.342 326.112 165.439C326.34 165.494 326.609 165.636 326.91 165.854L327.094 165.994C327.251 166.118 327.416 166.261 327.587 166.42L327.796 166.62L328.01 166.836L328.23 167.067L328.342 167.188L328.626 167.507L328.918 167.848C328.996 167.942 329.076 168.038 329.155 168.137L329.396 168.438L329.64 168.751L329.886 169.077C329.927 169.132 329.968 169.188 330.01 169.244L330.321 169.674L330.635 170.12C330.677 170.18 330.719 170.241 330.761 170.303L331.139 170.866L331.391 171.253L331.643 171.648L331.893 172.051L332.143 172.461L332.513 173.09L332.636 173.303L332.879 173.732L333.136 174.2C333.226 174.366 333.315 174.533 333.403 174.698L333.661 175.194L333.909 175.686L334.148 176.175L334.264 176.418L334.488 176.899L334.702 177.376L334.805 177.613L335.004 178.081C336.358 181.339 336.939 184.141 336.459 185.769C336.199 186.652 335.547 187.736 334.601 188.911L334.323 189.249C333.704 189.987 332.976 190.756 332.163 191.53L331.782 191.887L331.389 192.245C331.19 192.424 330.987 192.603 330.779 192.781L330.36 193.136C330.077 193.373 329.788 193.608 329.493 193.842L329.046 194.19C328.821 194.364 328.592 194.536 328.361 194.706L327.894 195.045C327.424 195.381 326.944 195.71 326.456 196.029C320.639 199.827 314.83 201.583 310.594 200.4C304.305 198.644 300.548 194.722 299.242 188.564C299.166 188.208 298.817 187.98 298.461 188.056C298.106 188.132 297.879 188.482 297.954 188.838C298.709 192.396 300.241 195.282 302.54 197.485L302.107 198.163C301.562 199.006 300.987 199.865 300.399 200.727L299.593 201.903L297.981 204.244L297.351 205.166L296.889 205.85L296.588 206.301L296.148 206.969L295.863 207.409L295.586 207.843L295.317 208.272L295.057 208.694L294.807 209.11L294.568 209.52L294.339 209.921L294.123 210.315C293.246 211.941 292.695 213.354 292.695 214.42L292.698 214.539L292.704 214.662L292.714 214.8L292.729 214.952L292.747 215.119L292.796 215.494L292.861 215.926L292.964 216.545L293.065 217.105L293.182 217.721L293.388 218.752L293.545 219.511L293.811 220.755L294.06 221.889L294.511 223.888L295.026 226.114L295.38 227.62L295.999 230.215L296.955 234.154L297.93 238.107L298.619 240.877L299.983 246.301L301.306 251.51L302.771 257.235L302.733 257.246L302.652 257.278L302.593 257.31L302.515 257.364L302.482 257.393L302.191 257.672C293.334 266.07 282.259 270.311 268.932 270.402H268.07C254.887 270.312 243.907 266.16 235.098 257.941L234.744 257.608L236.371 228.582C250.834 227.287 264.313 222.582 276.804 214.466C276.975 214.353 277.091 214.162 277.101 213.941C277.114 213.577 276.832 213.271 276.468 213.256L273.49 213.133L271.655 213.052L269.872 212.968L268.139 212.882L266.454 212.792L265.355 212.73L263.742 212.635L262.689 212.569L261.653 212.501L260.129 212.395L259.132 212.322L258.15 212.247L257.181 212.169L256.225 212.089L255.28 212.006L254.347 211.921L253.424 211.832L252.511 211.741L251.158 211.599L250.265 211.5L249.38 211.398L248.5 211.292L247.626 211.183L246.756 211.071L245.458 210.895L244.596 210.773L243.736 210.647L242.931 210.525L242.126 210.4L241.585 210.314L241.048 210.226L239.984 210.046C239.102 209.894 238.235 209.736 237.382 209.572L236.365 209.372C226.093 207.31 217.928 204.34 212.017 200.234C199.681 191.667 207.089 169.202 228.041 142.359L228.68 141.545L229.315 140.74L229.227 140.849L229.156 140.932L229.593 140.401L229.84 140.093L230.193 139.645L230.924 138.743C231.909 137.532 232.921 136.313 233.958 135.088C238.16 130.124 242.178 125.705 246.076 121.81L246.563 121.325L246.596 121.332C249.985 121.84 252.886 123.028 254.729 124.377C255.022 124.591 255.434 124.527 255.648 124.233C255.863 123.939 255.799 123.527 255.505 123.312C253.667 121.966 250.925 120.792 247.726 120.186C249.414 118.549 251.081 117.012 252.732 115.574L253.35 115.039L256.976 115.019L259.76 114.993L261.953 114.963L263.321 114.939L264.935 114.903L266.152 114.87L267.024 114.843L268.405 114.792L269.449 114.746L270.199 114.708L271.158 114.654L272.295 114.579L273.161 114.513L273.787 114.46L274.395 114.404L275.323 114.309L275.851 114.249L276.355 114.187L276.85 114.123L277.358 114.053L278.052 113.95C279.027 113.8 279.93 113.628 280.761 113.433ZM274.261 106.988L274.254 107.04C273.864 109.852 271.093 111.644 265.959 112.651L265.513 112.736L265.063 112.817L264.607 112.893L264.145 112.966L263.676 113.034L263.198 113.098L262.956 113.129L262.465 113.188L261.962 113.243L261.449 113.295L260.922 113.343L260.383 113.387L259.829 113.429L259.26 113.467L258.375 113.519L257.763 113.55L256.811 113.591L255.813 113.626L254.768 113.655L253.483 113.682L252.156 113.703L250.64 113.718L249.086 113.727L247.143 113.73C240.94 113.73 233.63 116.443 225.501 121.247C219.728 124.658 214.426 128.529 208.447 133.362C208.164 133.591 208.12 134.006 208.348 134.289C208.577 134.572 208.991 134.617 209.274 134.388C211.839 132.315 214.278 130.42 216.681 128.665L217.281 128.229L217.326 128.26L218.634 129.052L220.731 130.334L221.742 130.957L223.02 131.751L224.503 132.685L225.599 133.384L226.614 134.041L227.548 134.655L228.195 135.088L228.602 135.364L229.292 135.839L229.756 136.166L230.175 136.468L230.43 136.655L230.686 136.846L229.664 138.181L229.231 138.738L228.841 139.233L228.48 139.683L228.134 140.104L227.905 140.377L227.673 140.649L227.35 141.022L226.987 141.433L226.267 142.237L200.969 142.237L200.614 142.231L200.528 142.228L200.356 142.22L200.182 142.207L200.003 142.191L199.719 142.157L199.515 142.126L199.296 142.089L199.058 142.045L198.661 141.963L198.207 141.861L197.686 141.736L197.101 141.59L196.171 141.349L194.127 140.802L188.72 139.328L187.904 139.108L187.072 138.888L186.272 138.681L185.123 138.392L184.387 138.214L183.67 138.046L183.318 137.966L182.624 137.813C182.394 137.763 182.167 137.715 181.941 137.669L181.285 137.536L180.652 137.415L180.276 137.345C174.286 136.26 169.475 136.292 165.594 137.76C163.97 138.374 161.458 139.765 158.057 141.933L157.223 142.469L156.356 143.034L155.454 143.629L154.99 143.938L154.037 144.578L153.049 145.248L152.028 145.947L150.972 146.677L149.882 147.436L148.758 148.226L147.6 149.045L146.407 149.894L145.18 150.773L143.919 151.682L142.623 152.621L141.293 153.59L139.929 154.589L138.531 155.618L137.098 156.677L134.885 158.321L132.594 160.032L131.024 161.211L129.42 162.419L127.782 163.658L126.109 164.926L123.535 166.885L121.776 168.229L119.073 170.3L116.293 172.439L113.435 174.645L111.487 176.154L108.5 178.472L105.436 180.859L102.284 183.321L97.7455 186.878L95.3711 188.744L91.6212 191.698L87.6557 194.83C87.3704 195.056 87.3217 195.47 87.5469 195.756C87.7571 196.023 88.1316 196.083 88.4126 195.907L88.4712 195.865L90.384 194.353L95.0646 190.662L98.705 187.8L102.253 185.019L119.626 194.722L91.6675 249.149L30.0658 188.302L29.9563 188.19C28.9901 187.168 28.5397 185.758 28.7402 184.359C30.1573 174.471 34.238 166.535 40.9878 160.524C42.9029 158.818 47.154 156.348 53.7353 153.117L55.0382 152.482L56.0536 151.993C56.3975 151.829 56.7468 151.662 57.1016 151.494L58.55 150.811L60.0565 150.11L60.8315 149.752L62.4253 149.022L64.0771 148.273L64.9249 147.892L66.6639 147.115L67.5552 146.719L69.3814 145.913L71.2658 145.088L73.2082 144.244L75.2086 143.382L77.2672 142.5L80.4639 141.142L82.6676 140.213L84.9293 139.266L87.249 138.299L89.6268 137.313L90.8374 136.813L93.3022 135.799L95.825 134.766L98.4057 133.714L101.044 132.643L103.741 131.554L106.496 130.445L109.308 129.318L112.179 128.171L115.107 127.006L118.094 125.822L121.138 124.619L125.813 122.78L130.618 120.898L135.622 118.947L139.125 117.586L142.765 116.176L146.547 114.715L150.475 113.202L154.557 111.634L158.798 110.009L163.205 108.326L163.554 108.196C165.653 107.439 167.862 107.032 170.093 106.991L170.465 106.988H274.261ZM287.203 106.988L287.191 107.088C286.849 109.589 284.734 111.183 280.332 112.182L279.868 112.284C279.711 112.317 279.551 112.349 279.388 112.381L278.892 112.474L278.637 112.518L278.115 112.605L277.852 112.647L277.28 112.732C275.972 112.921 274.587 113.075 273.015 113.202L272.212 113.263L271.376 113.319L270.555 113.368L269.778 113.409L269.002 113.446L268.225 113.479C272.654 112.276 275.195 110.251 275.57 107.152L275.588 106.988L287.203 106.988ZM278.792 100.663L278.895 101.569C278.976 102.259 279.06 102.946 279.149 103.63L279.285 104.652L279.428 105.669H266.477L267.094 105.328C267.914 104.88 268.735 104.456 269.556 104.057C272.484 102.632 275.391 101.54 278.282 100.791L278.792 100.663Z" fill="#FBFBFB"/>
<path d="M407.783 331.131L407.794 331.958L345.846 331.645L346.604 331.39L347.365 331.131L407.783 331.131ZM120.523 194.417L120.538 194.476L234.07 257.875C243.194 266.666 254.671 271.061 268.501 271.061C282.33 271.061 293.807 266.666 302.931 257.875L407.005 269.261L407.188 283.828L401.038 285.448L394.528 287.172C375.71 292.168 355.575 297.624 334.122 303.541C296.813 296.03 275.119 294.288 269.04 298.314C261.578 303.256 255.856 322.025 255.507 331.188L244.516 331.131H155.026L153.913 324.562L153.84 324.509L153.766 324.571L153.729 324.429L80.8535 271.641L120.523 194.417Z" fill="#714AFF"/>
<path fill-rule="evenodd" clip-rule="evenodd" d="M271.965 158.128C279.234 158.128 285.126 164.032 285.126 171.315C285.126 178.597 279.234 184.501 271.965 184.501C264.695 184.501 258.803 178.597 258.803 171.315C258.803 164.032 264.695 158.128 271.965 158.128Z" fill="white"/>
<path fill-rule="evenodd" clip-rule="evenodd" d="M268.98 102.87C272.145 101.331 275.291 100.168 278.422 99.3962L279.236 99.2039C279.328 99.1831 279.399 99.1675 279.517 99.142C289.739 96.9168 299.808 98.8788 309.861 105.488L319.217 111.726L321.033 112.95L322.226 113.761L323.047 114.324L323.923 114.929L324.767 115.516L325.582 116.089L326.373 116.65L326.761 116.927L327.349 117.351L327.77 117.656L328.6 118.265C328.874 118.467 329.145 118.669 329.414 118.87L330.21 119.471C339.138 126.264 344.86 132.435 349.021 140.269C352.12 146.102 354.268 152.848 355.506 160.936L355.638 161.823L355.762 162.722L355.879 163.631C356.087 165.308 356.259 167.04 356.395 168.832L356.466 169.815C356.667 172.781 356.772 175.908 356.782 179.208L356.782 263.224L453.489 274.022C474.016 276.249 486.876 295.324 492 331.038C492.054 331.412 491.785 331.749 491.419 331.787L491.349 331.791H347.472L346.827 332.01C332.101 336.987 318.936 340.063 307.328 341.236L307.062 341.262L306.323 342.437L316.437 351.559C319.39 354.223 319.891 358.488 317.556 361.086C315.222 363.684 310.935 363.63 307.982 360.966L306.34 359.485C306.262 359.64 306.125 359.766 305.938 359.82L305.873 359.836C298.618 361.198 292.532 360.979 287.616 359.162C286.838 358.875 286.216 358.396 285.75 357.726C279.957 356.776 276.235 354.478 274.676 350.86C269.697 349.007 266.346 346.693 264.668 343.9L264.782 343.959C260.505 341.782 257.421 339.115 255.545 335.951C255.082 335.17 254.855 333.854 254.841 332.158L254.839 331.847L155.109 331.794C155.086 331.794 155.063 331.793 155.04 331.791L154.968 331.788C154.685 331.764 154.446 331.556 154.384 331.273L154.373 331.207L153.679 325.182C153.652 325.171 153.626 325.159 153.6 325.144L153.54 325.105L93.1814 281.385C93.1322 281.374 93.0834 281.357 93.0362 281.333C92.9192 281.275 92.827 281.187 92.7644 281.083L80.4683 272.175C80.2235 271.998 80.1329 271.679 80.2404 271.402L80.2688 271.339L91.036 250.378L29.1415 189.241C27.8025 187.918 27.1699 186.037 27.4371 184.172C28.8973 173.983 33.1245 165.762 40.1132 159.538C43.9865 156.088 56.8691 149.721 78.8062 140.412L81.3776 139.325L83.7605 138.324C84.2973 138.1 84.8389 137.873 85.3854 137.645L88.1577 136.493L89.5741 135.907L92.4671 134.715L95.4406 133.497L98.4945 132.253L100.052 131.621L104.032 130.013L108.976 128.029L113.233 126.331L118.508 124.239L122.126 122.812L125.824 121.358L129.603 119.878L133.462 118.372L137.402 116.84L141.423 115.281L145.524 113.696L149.706 112.085L153.969 110.447L158.312 108.784L162.736 107.094C165.092 106.195 167.586 105.714 170.105 105.672L170.465 105.669L263.864 105.669C265.57 104.633 267.273 103.701 268.98 102.87ZM437.865 276.574L436.983 276.792L429.908 278.603L425.641 279.702L420.007 281.161L415.294 282.388L408.109 284.268L403.241 285.549L395.822 287.511L389.533 289.183L383.147 290.889L375.355 292.981L370.083 294.403L366.088 295.484L357.993 297.682L351.14 299.552L346.982 300.69L339.974 302.613L334.297 304.177C334.198 304.204 334.094 304.208 333.993 304.187L331.787 303.746L329.241 303.245L326.745 302.763L325.11 302.453L323.498 302.15L321.908 301.856L320.341 301.571L318.034 301.159L315.778 300.765L314.302 300.513C313.814 300.431 313.33 300.35 312.85 300.27L311.243 300.006L310.547 299.894L308.492 299.569L307.15 299.362L305.83 299.164L304.533 298.974L303.257 298.792L302.005 298.619L300.774 298.453L298.971 298.221L297.796 298.076L296.644 297.939L296.077 297.873L294.958 297.749L293.862 297.633C293.5 297.595 293.143 297.559 292.788 297.524L291.478 297.401L290.203 297.29L289.207 297.21L287.995 297.122L286.818 297.046L285.902 296.995L285.008 296.952C284.713 296.939 284.423 296.928 284.136 296.918L283.287 296.891L282.461 296.872C275.939 296.757 271.58 297.422 269.403 298.864C267.655 300.022 265.922 302.061 264.296 304.739L264.021 305.201L263.761 305.65L263.551 306.025C263.433 306.238 263.315 306.455 263.199 306.675C263.039 306.976 262.88 307.283 262.723 307.597L262.356 308.344L262.094 308.897L261.94 309.23L261.772 309.599L261.543 310.117L261.479 310.263C261.373 310.507 261.268 310.754 261.164 311.004L261.008 311.38C260.691 312.153 260.383 312.949 260.085 313.766L259.976 314.065C259.871 314.356 259.767 314.65 259.665 314.946L259.512 315.392C259.406 315.706 259.301 316.022 259.198 316.341L258.926 317.197L258.769 317.707L258.525 318.528L258.368 319.074L258.216 319.617L258.069 320.158L257.927 320.696L257.79 321.231L257.659 321.762L257.533 322.289L257.411 322.812L257.296 323.331L257.185 323.844L257.08 324.351L256.98 324.853L256.886 325.348L256.797 325.837L256.673 326.556L256.563 327.259L256.496 327.717L256.435 328.167L256.367 328.717L256.307 329.251L256.266 329.668L256.215 330.274L256.189 330.665L256.168 331.044L256.154 331.412C256.14 331.834 256.139 332.231 256.15 332.602L256.163 332.912L256.182 333.21L256.194 333.353L256.222 333.629C256.306 334.345 256.456 334.905 256.676 335.277C258.178 337.809 260.542 340.022 263.78 341.912C263.656 341.503 263.563 341.085 263.501 340.658C263.384 339.852 263.422 338.799 263.613 337.497L263.679 337.077L263.754 336.641L263.841 336.188L263.887 335.956L263.989 335.478L264.043 335.233L264.16 334.73L264.287 334.211L264.355 333.945L264.534 333.262L264.73 332.553L264.898 331.967L265.076 331.365L265.363 330.429L265.567 329.785L265.836 328.955L266.122 328.1L266.361 327.397L266.612 326.677L266.872 325.94L267.143 325.186L267.423 324.416L267.715 323.629L268.171 322.416L268.487 321.586L268.814 320.74L269.152 319.877L269.499 318.996L270.04 317.644L270.413 316.722L270.992 315.306L271.595 313.852L272.009 312.861L272.65 311.344L273.314 309.788L274.001 308.193L274.472 307.109C274.617 306.775 275.005 306.623 275.338 306.768C275.671 306.914 275.823 307.302 275.678 307.636L274.987 309.23L274.338 310.741L273.729 312.173L273.157 313.531L272.604 314.857L272.245 315.724L271.724 316.998L271.386 317.831L271.057 318.649L270.737 319.454L270.271 320.634L269.825 321.784L269.397 322.902L268.988 323.988L268.726 324.695L268.472 325.388L268.226 326.067L267.989 326.732L267.649 327.704L267.328 328.644L267.125 329.253L266.835 330.14L266.742 330.429L266.564 330.996L266.312 331.82L266.154 332.351L265.933 333.122L265.796 333.619L265.668 334.101L265.548 334.57L265.436 335.024L265.333 335.464L265.238 335.89L265.152 336.301L265.074 336.699L265.004 337.082L264.972 337.268L264.915 337.631L264.889 337.806L264.845 338.147L264.809 338.473L264.781 338.786L264.761 339.084L264.75 339.368C264.74 339.783 264.757 340.15 264.804 340.468C265.313 343.985 268.394 346.921 274.143 349.239C273.94 348.378 273.838 347.456 273.838 346.472C273.838 345.928 273.866 345.345 273.923 344.723L273.966 344.303C273.981 344.161 273.998 344.017 274.016 343.871L274.076 343.427L274.109 343.201L274.181 342.74L274.22 342.506L274.304 342.027L274.398 341.538L274.447 341.288L274.553 340.781L274.609 340.523L274.728 339.998L274.855 339.462L275.061 338.636L275.209 338.071L275.366 337.494L275.531 336.905L275.794 336.001L275.981 335.383L276.175 334.754L276.379 334.113L276.59 333.461L276.81 332.796L277.156 331.778L277.398 331.085L277.776 330.023L278.038 329.301L278.309 328.567L278.731 327.444L279.172 326.294L279.477 325.514L279.79 324.721L280.112 323.917L280.442 323.101L280.781 322.273L281.304 321.01L281.847 319.72L282.409 318.404L282.794 317.512L283.388 316.152L284 314.765L284.419 313.826C284.568 313.494 284.958 313.346 285.289 313.495C285.621 313.644 285.769 314.034 285.62 314.366L285.206 315.295L284.808 316.194L284.237 317.496L283.874 318.333L283.518 319.16L283.169 319.976L282.828 320.782L282.33 321.972L281.849 323.138L281.385 324.281L280.937 325.401L280.648 326.135L280.228 327.216L279.958 327.923L279.695 328.621L279.314 329.647L279.069 330.319L278.832 330.98L278.602 331.631L278.38 332.271L278.165 332.901L277.957 333.52L277.757 334.129L277.564 334.728L277.379 335.316L277.115 336.179L276.948 336.742L276.788 337.294L276.636 337.835L276.492 338.366L276.355 338.887L276.225 339.397L276.044 340.143L275.88 340.865L275.78 341.333L275.688 341.791L275.602 342.239L275.524 342.676L275.438 343.208L275.362 343.723L275.335 343.925L275.287 344.32C275.272 344.45 275.259 344.578 275.246 344.705L275.213 345.079L275.187 345.443L275.169 345.797C275.166 345.855 275.164 345.912 275.162 345.969L275.155 346.307L275.154 346.472C275.154 347.77 275.353 348.946 275.753 349.999C275.795 350.066 275.825 350.139 275.841 350.217C277.111 353.292 280.158 355.299 285.062 356.263C284.562 354.618 284.568 352.341 285.071 349.428L285.165 348.907L285.269 348.373C285.361 347.923 285.462 347.459 285.575 346.981L285.715 346.401L285.866 345.807L286.069 345.047L286.287 344.266L286.473 343.626L286.67 342.973L286.877 342.306C286.912 342.194 286.948 342.082 286.984 341.968L287.206 341.282L287.438 340.583L287.806 339.508L288.064 338.776L288.331 338.03L288.609 337.27L288.897 336.498L289.196 335.712L289.504 334.912L289.822 334.1L290.151 333.274L290.662 332.01L291.016 331.15L291.379 330.278L291.753 329.392L292.137 328.492L292.53 327.579L292.934 326.653L293.348 325.714L293.558 325.239C293.706 324.906 294.095 324.757 294.427 324.905C294.759 325.053 294.908 325.443 294.76 325.775C294.584 326.171 294.411 326.564 294.24 326.953L293.736 328.108L293.249 329.242C293.089 329.617 292.931 329.988 292.777 330.355L292.321 331.446C292.247 331.626 292.173 331.805 292.099 331.983L291.668 333.041C291.527 333.391 291.388 333.736 291.252 334.078L290.853 335.093C290.787 335.26 290.723 335.427 290.659 335.592L290.283 336.575C290.222 336.737 290.161 336.898 290.101 337.058L289.75 338.008L289.414 338.936L289.172 339.618C285.301 350.653 285 356.79 288.071 357.925C292.381 359.518 297.699 359.82 304.027 358.817L304.299 358.773L298.16 353.29C297.926 353.081 297.874 352.739 298.026 352.471L298.065 352.411L298.541 351.748L299.025 351.064L299.538 350.331L300.061 349.575L300.63 348.743L301.086 348.069C301.162 347.955 301.239 347.841 301.316 347.726L302.37 346.14L302.713 345.617L303.41 344.548L304.12 343.446L304.816 342.356L305.592 341.128L306.119 340.288C306.228 340.114 306.41 340.001 306.614 339.981C318.45 338.846 331.964 335.689 347.153 330.507C347.198 330.492 347.245 330.481 347.293 330.476L347.365 330.472H490.587L490.505 329.914C484.097 287.343 466.592 269.691 437.865 276.574ZM249.622 308.322C248.258 309.47 246.841 310.526 245.379 311.489L249.155 330.525L254.84 330.528L254.885 330.531L254.896 330.352C255.124 326.806 256.043 322.148 257.51 317.323L257.725 316.626C257.806 316.367 257.889 316.11 257.972 315.855L249.622 308.322ZM244.188 312.247C238.947 315.467 233.173 317.531 227.246 318.419L232.07 330.516L247.814 330.525L244.188 312.247ZM132.888 202.128L94.188 280.486L153.478 323.433L151.852 309.298C151.811 308.936 152.069 308.609 152.431 308.567C152.769 308.528 153.077 308.754 153.149 309.08L153.16 309.147L155.613 330.476L230.652 330.516L225.9 318.6C213.391 320.092 200.328 316.377 190.231 307.269C171.649 290.506 170.148 261.824 186.88 243.207C189.186 240.641 191.719 238.4 194.42 236.487L132.888 202.128ZM205.01 242.401C201.219 244.295 197.712 246.92 194.705 250.266C181.864 264.553 183.016 286.565 197.277 299.429C204.265 305.733 213.104 308.671 221.813 308.347L217.326 297.094C217.279 296.977 217.267 296.85 217.29 296.727L217.308 296.654L221.724 282.336L212.615 273.854C212.52 273.766 212.454 273.652 212.424 273.527L212.41 273.45L208.946 244.599L205.01 242.401ZM210.366 245.393L213.688 273.053L222.923 281.652C223.09 281.807 223.164 282.036 223.122 282.257L223.104 282.33L218.634 296.821L223.198 308.268C229.89 307.752 236.443 305.305 241.951 300.974L233.484 258.302L210.366 245.393ZM301.787 259.827C292.806 267.754 281.701 271.72 268.501 271.72C267.578 271.72 266.666 271.701 265.763 271.662C266.16 281.113 263.623 290.692 258.077 298.915L263.386 303.703C265.05 301.035 266.838 298.982 268.677 297.764C269.218 297.406 269.872 297.092 270.64 296.821L270.953 296.715C271.432 296.559 271.952 296.419 272.512 296.295L272.892 296.214C273.021 296.188 273.152 296.163 273.284 296.138L273.689 296.067L273.895 296.033L274.318 295.969L274.534 295.938L274.975 295.881L275.543 295.815L276.13 295.757L276.613 295.716L276.859 295.697L277.361 295.663L278.005 295.627L278.669 295.598L279.213 295.579L279.77 295.566L280.338 295.557L280.919 295.553L281.513 295.553L282.425 295.562L283.366 295.582L284.008 295.601L284.662 295.624L285.329 295.652L286.007 295.685L286.698 295.722L287.758 295.786L288.845 295.861L289.585 295.917L290.338 295.977L291.102 296.042L291.879 296.112L293.07 296.225L301.787 259.827ZM327.101 261.237L322.128 283.942C322.101 284.067 322.038 284.181 321.948 284.27L321.89 284.32L311.207 292.67L312.587 298.886L314.496 299.205L315.975 299.458L318.237 299.853L319.773 300.127L321.331 300.409L322.913 300.699L324.517 300.998L326.144 301.306L327.794 301.622L329.467 301.946L332.019 302.448L334.098 302.863L342.848 300.456L349.27 298.696L357.461 296.461L362.309 295.143L367.107 293.842L371.856 292.559L376.555 291.293L382.743 289.632L388.842 288.003L393.358 286.801V268.636L327.101 261.237ZM235.11 259.734L243.104 300.027C244.238 299.053 245.323 297.995 246.35 296.853C253.143 289.294 256.02 279.575 255.112 270.191C247.565 268.356 240.895 264.87 235.11 259.734ZM303.436 258.595L294.391 296.359L295.54 296.483L296.12 296.547L297.296 296.683L298.496 296.828L299.719 296.982L301.598 297.228L302.879 297.403L304.184 297.587L304.845 297.682L306.523 297.929L308.238 298.19L309.636 298.409L311.188 298.657L309.832 292.55C309.783 292.327 309.853 292.095 310.013 291.937L310.07 291.887L320.893 283.426L325.786 261.09L303.436 258.595ZM394.674 268.783L394.674 286.451L399.72 285.115L406.347 283.367L406.347 270.086L394.674 268.783ZM407.663 270.233L407.663 283.022L410.81 282.197L413.931 281.381L418.562 280.174L421.616 279.382L427.645 277.824L432.096 276.68L436.658 275.514C438.789 274.971 440.862 274.557 442.876 274.272L443.312 274.214L407.663 270.233ZM120.776 195.364L81.698 271.439L93.1072 279.703L131.737 201.485L120.776 195.364ZM280.76 113.433C279.93 113.628 279.027 113.8 278.052 113.95L277.358 114.053L276.85 114.123L276.355 114.187L275.851 114.249L275.323 114.309L274.591 114.385L273.797 114.459L273.182 114.512L272.331 114.577L271.669 114.622L270.984 114.665L269.788 114.729L268.519 114.787L267.445 114.828L266.025 114.874L264.197 114.921L262.897 114.947L260.818 114.98L257.784 115.013L255.724 115.027L253.35 115.039C251.497 116.63 249.625 118.345 247.725 120.186C250.924 120.792 253.667 121.966 255.505 123.312C255.799 123.527 255.863 123.939 255.648 124.233C255.434 124.527 255.022 124.592 254.729 124.377C252.886 123.028 249.984 121.84 246.596 121.332L246.563 121.326C242.513 125.337 238.334 129.917 233.958 135.088C232.921 136.314 231.909 137.532 230.924 138.743L230.193 139.645L229.839 140.093L229.592 140.401L229.155 140.933L229.227 140.849L229.306 140.75L228.68 141.545C207.24 168.747 199.557 191.581 212.017 200.235C217.927 204.34 226.093 207.311 236.364 209.372L237.382 209.572C238.235 209.736 239.102 209.894 239.983 210.046L241.048 210.226L241.585 210.314L242.126 210.4L242.931 210.525L243.736 210.647L244.554 210.767L245.374 210.883L246.196 210.996L247.021 211.105L247.849 211.211L248.682 211.314L249.52 211.414L250.787 211.558L252.07 211.696L253.369 211.827L254.246 211.911L255.132 211.993L256.029 212.072L257.393 212.187L258.784 212.296L259.727 212.366L261.167 212.468L262.639 212.566L263.639 212.629L265.17 212.72L266.74 212.808L268.896 212.92L270.564 213.001L272.86 213.106L274.638 213.182L276.468 213.257C276.831 213.271 277.114 213.578 277.101 213.941C277.091 214.162 276.975 214.353 276.804 214.466C264.313 222.582 250.834 227.287 236.37 228.582L236.235 231.003C241.466 232.939 246.426 235.883 250.823 239.85C259.889 248.027 264.889 259.042 265.69 270.34C266.474 270.376 267.268 270.396 268.07 270.402H268.501C282.02 270.402 293.238 266.16 302.191 257.672L302.482 257.393L302.515 257.365L302.593 257.31L302.651 257.278L302.732 257.246L302.771 257.235L301.305 251.51L299.983 246.301L298.501 240.405L297.493 236.345L296.875 233.827L296.027 230.333L295.276 227.179L294.688 224.66L294.297 222.947L294.004 221.635L293.79 220.66L293.596 219.753L293.421 218.912L293.228 217.956L293.095 217.267L292.982 216.645L292.887 216.089L292.811 215.601L292.754 215.18L292.724 214.908L292.71 214.748L292.7 214.604L292.695 214.448L292.695 214.42C292.695 213.593 293.026 212.557 293.584 211.376L293.758 211.017L293.945 210.65L294.144 210.275L294.248 210.084L294.465 209.698C294.502 209.633 294.54 209.568 294.577 209.502L294.81 209.105L295.052 208.702L295.304 208.292L295.697 207.667L295.969 207.244L296.39 206.6L296.824 205.947L297.42 205.064L298.032 204.168L299.998 201.314C300.883 200.023 301.752 198.734 302.54 197.485C300.241 195.283 298.709 192.396 297.954 188.838C297.879 188.482 298.106 188.132 298.461 188.056C298.817 187.981 299.166 188.208 299.242 188.564C300.548 194.722 304.305 198.644 310.593 200.4C314.83 201.583 320.639 199.828 326.456 196.029C326.944 195.71 327.424 195.381 327.894 195.045L328.36 194.706C328.592 194.536 328.82 194.364 329.046 194.19L329.493 193.842C329.788 193.608 330.077 193.373 330.36 193.137L330.779 192.781C330.986 192.603 331.19 192.424 331.389 192.245L331.781 191.888L332.162 191.53C332.975 190.756 333.703 189.987 334.323 189.249L334.601 188.911C335.546 187.736 336.199 186.652 336.459 185.769C336.938 184.141 336.358 181.339 335.004 178.081L334.805 177.613L334.702 177.376L334.488 176.9L334.264 176.418L334.148 176.175L333.909 175.687L333.661 175.194L333.403 174.698C333.315 174.533 333.226 174.366 333.136 174.2L332.878 173.732L332.636 173.303L332.513 173.09L332.205 172.565L331.893 172.051L331.642 171.648L331.391 171.253L331.139 170.866L330.887 170.488L330.76 170.303L330.446 169.85L330.134 169.414C330.092 169.357 330.051 169.3 330.009 169.244L329.762 168.913L329.517 168.593L329.275 168.286C329.155 168.135 329.035 167.989 328.918 167.849L328.684 167.574L328.454 167.313C328.379 167.229 328.304 167.147 328.23 167.067L328.01 166.836L327.795 166.62L327.587 166.42C327.416 166.261 327.251 166.118 327.094 165.994L326.91 165.854C326.608 165.636 326.339 165.494 326.112 165.439C325.749 165.35 325.291 165.309 324.738 165.316L324.476 165.323L324.201 165.336L323.913 165.356L323.611 165.383L323.296 165.417C323.189 165.43 323.079 165.443 322.967 165.458L322.626 165.505L322.271 165.559L321.714 165.653L321.326 165.725L320.925 165.803L320.51 165.888L320.083 165.979L319.642 166.078L318.957 166.238L318.484 166.354L317.997 166.476L317.243 166.673L316.724 166.812L315.921 167.034L315.37 167.191L314.806 167.354L314.229 167.525L313.638 167.702L312.729 167.98L311.791 168.275L310.824 168.584L310.163 168.799C309.93 168.875 309.674 168.815 309.499 168.644C294.848 154.321 285.269 135.912 280.76 113.433ZM235.608 242.187L234.744 257.608L234.811 257.672C240.579 263.141 247.288 266.847 254.947 268.792C253.868 260.938 250.119 253.409 243.778 247.689C241.263 245.421 238.509 243.589 235.608 242.187ZM206.477 241.711L233.471 256.785L234.322 241.598C225.414 237.738 215.278 237.82 206.477 241.711ZM274.26 106.988H170.465C168.108 106.988 165.769 107.397 163.553 108.196L163.205 108.326L158.798 110.009L154.557 111.634L150.475 113.202L146.546 114.715L142.765 116.176L139.125 117.586L135.621 118.947L130.618 120.898L125.813 122.78L121.138 124.619L118.093 125.822L115.107 127.006L112.179 128.172L109.308 129.318L106.496 130.445L103.741 131.554L101.044 132.643L98.4055 133.714L95.8247 134.766L93.302 135.799L90.8372 136.813L88.4304 137.808L86.0817 138.785L83.7909 139.742L81.0091 140.912L78.318 142.052L76.2304 142.943L75.2084 143.382L73.2079 144.245L71.2655 145.088L69.3812 145.913L67.555 146.719C67.2555 146.852 66.9584 146.983 66.6637 147.115L64.9247 147.892L64.0769 148.273L62.4251 149.022L60.8313 149.752C60.5706 149.872 60.3122 149.992 60.0563 150.11L58.5498 150.812L57.1014 151.494L56.0534 151.993C55.7094 152.158 55.371 152.321 55.038 152.482L53.7351 153.117L52.7492 153.604C46.7275 156.597 42.8053 158.905 40.9876 160.524C34.2378 166.535 30.1571 174.471 28.74 184.359C28.5395 185.758 28.9898 187.169 29.9561 188.19L30.0656 188.302L91.6673 249.149L119.626 194.722L102.253 185.019L98.7048 187.8L95.0644 190.662L90.3838 194.354L88.471 195.865C88.1857 196.091 87.7719 196.042 87.5467 195.756C87.3215 195.47 87.3702 195.056 87.6555 194.83L91.621 191.698L95.3709 188.744L97.7453 186.878L102.284 183.321L105.457 180.843L108.459 178.504L112.347 175.487L114.241 174.022L117.931 171.178L120.611 169.12L123.217 167.127L124.913 165.835L126.576 164.571L129.009 162.729L131.368 160.953L132.899 159.804L135.134 158.135L136.583 157.058L137.999 156.01L139.382 154.991L140.732 154L142.05 153.039L143.334 152.106L144.585 151.201L145.804 150.326L147.57 149.066L148.706 148.262L149.809 147.487L150.88 146.741L151.917 146.023L152.922 145.334L153.894 144.674L155.29 143.737L156.613 142.865L157.454 142.32L157.862 142.058L158.653 141.555C159.299 141.148 159.911 140.771 160.488 140.424L161.165 140.022L161.809 139.649L162.294 139.374C163.64 138.621 164.74 138.083 165.594 137.76C169.474 136.292 174.286 136.26 180.276 137.345L180.652 137.415L181.285 137.536L182.082 137.698L182.892 137.871L183.552 138.019L184.226 138.176L184.916 138.342L185.627 138.517L186.359 138.703L187.117 138.9L187.903 139.108L188.72 139.328L194.127 140.802L196.17 141.349L197.101 141.59L197.495 141.689L198.041 141.822L198.366 141.897L198.661 141.963L198.931 142.02L199.179 142.068L199.407 142.109L199.719 142.157L199.911 142.181L200.182 142.208L200.356 142.22L200.528 142.228L200.789 142.235L200.969 142.237L226.267 142.238L226.987 141.433L227.459 140.896L227.673 140.649L228.085 140.162L228.394 139.788L228.821 139.258L229.289 138.664L230.116 137.592L230.686 136.846L230.43 136.655L230.175 136.468L229.756 136.166L229.292 135.839L228.602 135.364L228.005 134.96L227.366 134.535L226.916 134.239L225.709 133.455L224.927 132.955L223.531 132.072L222.017 131.127L220.384 130.12L218.634 129.052L217.326 128.26L217.281 128.229C214.683 130.106 212.053 132.142 209.273 134.388C208.991 134.617 208.576 134.573 208.348 134.289C208.12 134.006 208.164 133.591 208.447 133.362C214.426 128.529 219.728 124.658 225.5 121.247C233.63 116.443 240.94 113.73 247.143 113.73L249.086 113.727L250.64 113.718L252.156 113.703L253.293 113.686L254.408 113.664L255.47 113.636L256.483 113.603L257.133 113.578L258.071 113.535L258.969 113.485L259.546 113.449L260.107 113.409L260.654 113.366L261.187 113.319L261.962 113.243L262.464 113.188L262.956 113.129L263.438 113.067L264.028 112.983L264.607 112.893L265.063 112.817L265.513 112.736L265.959 112.651C271.093 111.644 273.864 109.852 274.254 107.04L274.26 106.988ZM166.059 138.993C164.594 139.547 162.358 140.772 159.353 142.666L158.551 143.175C158.415 143.262 158.277 143.351 158.138 143.441L156.844 144.284L155.938 144.884L154.997 145.515L154.021 146.176L153.01 146.867L151.429 147.961L149.769 149.123L148.031 150.353L146.829 151.211L145.592 152.099L144.32 153.017L143.014 153.966L140.989 155.446L138.885 156.994L137.44 158.064L135.206 159.726L132.894 161.456L131.31 162.647L128.868 164.49L126.348 166.401L123.749 168.38L121.974 169.737L119.246 171.83L117.384 173.263L114.525 175.469L111.589 177.743L108.575 180.084L105.483 182.494L103.379 184.138L120.614 193.764C120.686 193.774 120.756 193.796 120.824 193.831C120.906 193.873 120.975 193.93 121.03 193.997L132.66 200.491C132.751 200.494 132.842 200.516 132.929 200.559C133.036 200.612 133.123 200.69 133.185 200.783L195.635 235.656C207.318 227.944 221.889 226.163 234.942 230.547L236.056 210.655C225.645 208.562 217.338 205.535 211.267 201.318C203.671 196.043 202.809 186.29 207.834 173.296C211.264 164.427 217.401 154.189 225.47 143.556L201.494 143.556C200.812 143.556 200.033 143.481 199.12 143.331L198.689 143.257C198.615 143.243 198.541 143.23 198.466 143.216L198.005 143.125L197.523 143.023L197.019 142.911L196.358 142.756L195.578 142.564L194.739 142.347L193.811 142.1L193.034 141.888L188.777 140.71L187.986 140.495L187.191 140.283L186.342 140.06C186.046 139.983 185.756 139.909 185.472 139.838L184.635 139.63L183.826 139.436C183.428 139.343 183.039 139.254 182.656 139.17L181.897 139.006C181.646 138.954 181.397 138.903 181.15 138.854L180.41 138.711C174.46 137.596 169.748 137.597 166.059 138.993ZM324.825 175.211C324.866 175.573 324.606 175.899 324.245 175.94C322.728 176.111 321.238 176.472 319.776 177.024C320.668 179.877 320.963 182.324 320.652 184.371C320.597 184.731 320.261 184.978 319.902 184.923C319.543 184.868 319.296 184.532 319.351 184.172C319.625 182.372 319.363 180.157 318.556 177.532C315.929 178.726 313.391 180.549 310.94 183.005C310.683 183.263 310.267 183.263 310.009 183.005C309.752 182.748 309.752 182.331 310.009 182.073C314.389 177.684 319.088 175.195 324.097 174.629C324.459 174.589 324.784 174.849 324.825 175.211ZM230.221 164.025L230.288 164.031C233.979 164.571 236.958 165.427 239.227 166.608C239.55 166.775 239.676 167.173 239.508 167.496C239.341 167.82 238.944 167.946 238.621 167.778C236.496 166.673 233.654 165.856 230.098 165.336C229.738 165.284 229.489 164.949 229.542 164.589C229.591 164.251 229.888 164.01 230.221 164.025ZM254.263 130.78C254.56 130.943 254.682 131.303 254.555 131.61L254.524 131.675L247.72 144.125C247.614 144.318 247.419 144.446 247.2 144.465L246.077 144.566L245.26 144.643L243.974 144.77L242.782 144.896L241.687 145.021L241.077 145.095L240.318 145.193L239.624 145.288L238.994 145.382L238.43 145.474L238.051 145.542L237.708 145.608L237.404 145.672L237.223 145.714L236.982 145.776L236.843 145.816L236.722 145.855L236.618 145.894L236.531 145.932C236.48 145.956 236.44 145.981 236.411 146.004C236.368 146.04 236.314 146.124 236.257 146.249L236.199 146.388C236.14 146.541 236.08 146.734 236.026 146.962C235.877 147.591 235.781 148.419 235.753 149.374C235.689 151.556 235.978 154.172 236.629 156.818C236.717 157.172 236.501 157.529 236.148 157.616C235.795 157.704 235.439 157.488 235.352 157.134C235.254 156.74 235.165 156.345 235.084 155.951L234.99 155.479L234.945 155.244L234.862 154.775C234.836 154.619 234.811 154.464 234.787 154.309L234.719 153.847C234.697 153.693 234.677 153.54 234.658 153.388L234.604 152.934L234.558 152.486L234.537 152.264L234.502 151.825L234.473 151.393L234.462 151.18L234.444 150.76L234.437 150.553L234.43 150.146C234.405 147.599 234.8 145.632 235.57 144.99C235.652 144.921 235.765 144.854 235.909 144.787L236.039 144.73L236.11 144.702L236.264 144.646L236.432 144.59L236.714 144.508L236.922 144.453L237.262 144.371L237.509 144.318L237.908 144.237L238.195 144.184L238.497 144.131L238.981 144.052L239.502 143.972L239.87 143.92L240.655 143.815L241.506 143.71L242.426 143.605L243.671 143.473L244.745 143.366L246.186 143.232L246.734 143.182L253.37 131.041C253.544 130.722 253.944 130.605 254.263 130.78ZM268.948 139.01C272.9 140.212 276.277 143.012 278.45 146.236C278.653 146.538 278.574 146.947 278.273 147.151C277.972 147.355 277.563 147.275 277.359 146.974C276.432 145.598 275.267 144.304 273.924 143.2C274.003 144.463 273.459 146.256 272.369 148.002C272.056 148.506 271.718 148.97 271.37 149.387L271.159 149.632C269.676 151.305 268.027 152.125 267.068 151.525C265.835 150.753 266.21 147.925 267.905 145.207C269.043 143.382 270.487 142.072 271.687 141.641C270.702 141.07 269.656 140.603 268.566 140.272C268.218 140.166 268.022 139.798 268.127 139.449C268.233 139.101 268.6 138.904 268.948 139.01ZM269.011 129.02C277.908 131.958 285.526 138.816 290.423 146.704C290.615 147.013 290.52 147.42 290.212 147.612C289.903 147.804 289.497 147.709 289.305 147.4C284.559 139.755 277.169 133.102 268.599 130.272C268.254 130.158 268.066 129.786 268.18 129.44C268.294 129.094 268.666 128.906 269.011 129.02ZM243.653 126.888C246.257 127.365 248.501 128.485 249.961 129.789C250.232 130.031 250.256 130.448 250.014 130.72C249.772 130.992 249.356 131.015 249.085 130.773C248.741 130.466 248.344 130.169 247.901 129.889C247.997 131.159 247.421 132.996 246.269 134.775C244.527 137.462 242.126 138.998 240.907 138.204C239.687 137.411 240.111 134.589 241.853 131.902C242.858 130.353 244.081 129.186 245.171 128.628C244.613 128.447 244.026 128.297 243.416 128.185C243.059 128.12 242.822 127.776 242.887 127.418C242.952 127.06 243.295 126.822 243.653 126.888ZM251.335 115.045L247.143 115.049C241.893 115.049 235.705 117.126 228.828 120.872L228.075 121.287C227.445 121.639 226.81 122.004 226.169 122.383C223.535 123.939 220.998 125.594 218.445 127.397L220.244 128.489L221.76 129.419L223.241 130.336L224.731 131.27L225.873 131.995L226.676 132.511L227.468 133.025L228.249 133.539L228.739 133.866L229.204 134.18L229.645 134.481L230.061 134.77L230.453 135.045L230.82 135.308L231.163 135.558L231.582 135.872C231.902 135.486 232.225 135.1 232.549 134.715L232.954 134.235C239.428 126.586 245.479 120.213 251.335 115.045ZM287.203 106.988L275.588 106.988L275.57 107.152C275.202 110.197 272.742 112.205 268.456 113.415L268.225 113.479L269.002 113.446L269.778 113.41L270.555 113.368L271.376 113.319L272.212 113.263L273.014 113.202C274.444 113.087 275.719 112.949 276.921 112.783L277.28 112.732L277.852 112.647L278.115 112.605L278.637 112.519L278.891 112.474L279.388 112.381C279.551 112.349 279.711 112.317 279.868 112.284L280.332 112.182C284.658 111.201 286.775 109.644 287.171 107.216L287.19 107.088L287.203 106.988ZM278.792 100.663C275.733 101.412 272.656 102.548 269.555 104.057C268.734 104.456 267.914 104.88 267.093 105.328L266.476 105.669H279.428L279.285 104.652C279.146 103.632 279.016 102.605 278.895 101.569L278.792 100.663Z" fill="black"/>
<path fill-rule="evenodd" clip-rule="evenodd" d="M250.235 1.3186C254.654 1.3186 258.235 4.90033 258.235 9.3186V67.1613C258.235 71.5796 254.654 75.1613 250.235 75.1613H9.31641C4.89814 75.1613 1.31641 71.5796 1.31641 67.1613V9.3186C1.31641 4.90032 4.89813 1.3186 9.31641 1.3186H250.235Z" fill="#00E08F"/>
<path fill-rule="evenodd" clip-rule="evenodd" d="M38.1686 50.8196C38.5093 50.8196 38.7896 51.079 38.8233 51.4115L38.8267 51.4789V58.2038C38.8267 58.568 38.532 58.8631 38.1686 58.8631C37.8279 58.8631 37.5476 58.6037 37.5139 58.2712L37.5105 58.2038V51.4789C37.5105 51.1147 37.8051 50.8196 38.1686 50.8196ZM48.0696 47.3503L48.1196 47.3956L52.8396 52.1244C53.0966 52.3818 53.0966 52.7993 52.8396 53.0568C52.5987 53.2981 52.2174 53.3132 51.9589 53.102L51.9089 53.0568L47.1889 48.328C46.9319 48.0705 46.9319 47.6531 47.1889 47.3956C47.4298 47.1542 47.8111 47.1391 48.0696 47.3503ZM28.2676 47.3503C28.5261 47.1391 28.9074 47.1542 29.1483 47.3956C29.3882 47.6359 29.4041 48.0156 29.1963 48.2745L29.1483 48.328L24.4283 53.0568L24.3783 53.102C24.1198 53.3132 23.7385 53.2981 23.4976 53.0568C23.2577 52.8164 23.2417 52.4368 23.4496 52.1779L23.4976 52.1244L28.2176 47.3956L28.2676 47.3503ZM24.9409 37.6993C25.3044 37.6993 25.599 37.9945 25.599 38.3586C25.599 38.7 25.3401 38.9807 25.0082 39.0145L24.9409 39.0179H18.2284C17.865 39.0179 17.5703 38.7227 17.5703 38.3586C17.5703 38.0172 17.8293 37.7365 18.1611 37.7027L18.2284 37.6993H24.9409ZM58.1088 37.6993C58.4722 37.6993 58.7669 37.9945 58.7669 38.3586C58.7669 38.7 58.5079 38.9807 58.1761 39.0145L58.1088 39.0179H51.3962C51.0328 39.0179 50.7381 38.7227 50.7381 38.3586C50.7381 38.0172 50.9971 37.7365 51.3289 37.7027L51.3962 37.6993H58.1088ZM51.9589 23.0877C52.2174 22.8765 52.5987 22.8916 52.8396 23.133C53.0795 23.3733 53.0955 23.753 52.8876 24.0119L52.8396 24.0654L48.1196 28.7942L48.0696 28.8394C47.8111 29.0506 47.4298 29.0355 47.1889 28.7942C46.949 28.5538 46.933 28.1742 47.1409 27.9153L47.1889 27.8617L51.9089 23.133L51.9589 23.0877ZM24.3783 23.0877L24.4283 23.133L29.1483 27.8617C29.4053 28.1192 29.4053 28.5367 29.1483 28.7942C28.9074 29.0355 28.5261 29.0506 28.2676 28.8394L28.2176 28.7942L23.4976 24.0654C23.2406 23.8079 23.2406 23.3905 23.4976 23.133C23.7385 22.8916 24.1198 22.8765 24.3783 23.0877ZM38.1686 17.5903C38.5093 17.5903 38.7896 17.8498 38.8233 18.1822L38.8267 18.2496V24.9746C38.8267 25.3387 38.532 25.6339 38.1686 25.6339C37.8279 25.6339 37.5476 25.3745 37.5139 25.042L37.5105 24.9746V18.2496C37.5105 17.8855 37.8051 17.5903 38.1686 17.5903Z" fill="black"/>
<path fill-rule="evenodd" clip-rule="evenodd" d="M470.828 151.114C475.247 151.114 478.828 154.695 478.828 159.114V211.682C478.828 216.1 475.247 219.682 470.828 219.682H418.387C413.968 219.682 410.387 216.1 410.387 211.682V159.114C410.387 154.696 413.968 151.114 418.387 151.114H470.828Z" fill="#1D99FF"/>
<path fill-rule="evenodd" clip-rule="evenodd" d="M463.823 166.146H425.391V188.299H463.823V166.146Z" fill="white"/>
<path fill-rule="evenodd" clip-rule="evenodd" d="M464.349 204.518C464.713 204.518 465.008 204.813 465.008 205.177C465.008 205.519 464.749 205.799 464.417 205.833L464.349 205.836H424.864C424.5 205.836 424.206 205.541 424.206 205.177C424.206 204.836 424.465 204.555 424.797 204.521L424.864 204.518H464.349ZM464.349 196.606C464.713 196.606 465.008 196.901 465.008 197.265C465.008 197.607 464.749 197.888 464.417 197.921L464.349 197.925H424.864C424.5 197.925 424.206 197.63 424.206 197.265C424.206 196.924 424.465 196.643 424.797 196.61L424.864 196.606H464.349ZM463.823 164.827C464.521 164.827 465.092 165.371 465.136 166.059L465.139 166.146V188.299C465.139 188.998 464.596 189.57 463.91 189.615L463.823 189.617H425.39C424.693 189.617 424.122 189.073 424.077 188.386L424.074 188.299V166.146C424.074 165.447 424.617 164.875 425.304 164.83L425.39 164.827H463.823ZM463.823 166.146H425.39V188.299H463.823V166.146Z" fill="black"/>
<path fill-rule="evenodd" clip-rule="evenodd" d="M517.684 111.028C522.102 111.028 525.684 114.61 525.684 119.028V171.596C525.684 176.014 522.102 179.596 517.684 179.596H465.242C460.824 179.596 457.242 176.014 457.242 171.596V119.028C457.242 114.61 460.824 111.028 465.242 111.028H517.684Z" fill="#FBFBFB"/>
<path fill-rule="evenodd" clip-rule="evenodd" d="M510.679 141.884V146.103H503.308V159.289H499.096V146.103H491.726V141.884H510.679ZM496.464 131.335V135.554H486.461V159.289H482.249V135.554H472.246V131.335H496.464Z" fill="#B8A4FF"/>
<path fill-rule="evenodd" clip-rule="evenodd" d="M496.464 130.016C497.161 130.016 497.732 130.56 497.777 131.248L497.78 131.335V135.554C497.78 136.253 497.237 136.825 496.55 136.87L496.464 136.873H487.777V159.289C487.777 159.959 487.278 160.513 486.632 160.597L486.547 160.605L486.461 160.608H482.249C481.551 160.608 480.98 160.064 480.935 159.376L480.933 159.289V136.873H472.246C471.577 136.873 471.025 136.373 470.941 135.726L470.932 135.641L470.93 135.554V131.335C470.93 130.635 471.473 130.063 472.159 130.019L472.246 130.016H496.464ZM510.678 140.565C511.376 140.565 511.947 141.109 511.992 141.797L511.995 141.884V146.103C511.995 146.802 511.452 147.374 510.765 147.419L510.678 147.422H504.624V159.289C504.624 159.959 504.125 160.513 503.479 160.597L503.394 160.605L503.308 160.608H499.096C498.398 160.608 497.827 160.064 497.783 159.376L497.78 159.289V147.422H491.725C491.057 147.422 490.504 146.922 490.42 146.275L490.412 146.19L490.409 146.103V141.884C490.409 141.184 490.952 140.612 491.639 140.568L491.725 140.565H510.678ZM496.464 131.335H472.246V135.554H482.249V159.289H486.461V135.554H496.464V131.335ZM510.678 141.884H491.725V146.103H499.096V159.289H503.308V146.103H510.678V141.884Z" fill="black"/>
<line x1="80" y1="26.5" x2="234" y2="26.5" stroke="black"/>
<line x1="80" y1="50.5" x2="234" y2="50.5" stroke="black"/>
</svg>
