<svg width="75" height="40" viewBox="0 0 75 40" fill="none" xmlns="http://www.w3.org/2000/svg">
<path d="M39.8246 16.6103L39.591 17.0047C39.3197 17.4614 38.93 17.8406 38.461 18.1042C37.992 18.3677 37.4602 18.5065 36.9189 18.5065C36.3776 18.5065 35.8458 18.3677 35.3768 18.1042C34.9078 17.8406 34.5181 17.4614 34.2468 17.0047L29.5293 9.02165L27.4441 5.494C27.2752 5.2076 27.1865 4.88293 27.1869 4.55256C27.1874 4.22219 27.277 3.89775 27.4467 3.61181C27.6164 3.32587 27.8603 3.0885 28.1538 2.92352C28.4474 2.75854 28.7803 2.67175 29.1191 2.67188H25.7804H6.83647C6.49765 2.67175 6.16476 2.75854 5.87121 2.92352C5.57766 3.0885 5.33379 3.32587 5.16407 3.61181C4.99436 3.89775 4.90476 4.22219 4.9043 4.55256C4.90383 4.88293 4.99251 5.2076 5.16142 5.494L23.0855 35.8262C23.3569 36.2829 23.7465 36.6621 24.2155 36.9257C24.6845 37.1893 25.2163 37.328 25.7576 37.328C26.2989 37.328 26.8307 37.1893 27.2997 36.9257C27.7687 36.6621 28.1584 36.2829 28.4297 35.8262L31.4494 30.7375C31.7207 30.2808 32.1104 29.9016 32.5793 29.6381C33.0483 29.3745 33.5801 29.2357 34.1214 29.2357C34.6628 29.2357 35.1946 29.3745 35.6636 29.6381C36.1325 29.9016 36.5222 30.2808 36.7935 30.7375L37.0214 31.1264C37.2928 31.5831 37.6824 31.9623 38.1514 32.2259C38.6204 32.4894 39.1522 32.6282 39.6935 32.6282C40.2348 32.6282 40.7667 32.4894 41.2356 32.2259C41.7046 31.9623 42.0943 31.5831 42.3656 31.1264L48.0631 21.5267L45.1688 16.6325C44.8994 16.1746 44.5114 15.7938 44.0436 15.5283C43.5758 15.2628 43.0446 15.1218 42.5032 15.1195C41.9619 15.1173 41.4295 15.2538 40.9594 15.5155C40.4892 15.7771 40.0979 16.1547 39.8246 16.6103Z" fill="#00E08F"/>
<path d="M67.0405 2.69409H55.9134C56.2495 2.69905 56.5784 2.78971 56.8675 2.95705C57.1565 3.12439 57.3956 3.36259 57.5609 3.64796C57.7263 3.93333 57.8121 4.25593 57.8099 4.58369C57.8078 4.91145 57.7177 5.23294 57.5486 5.51621L56.7281 6.89949L48.0566 21.5156L50.9566 26.421C51.228 26.8777 51.6176 27.2569 52.0866 27.5205C52.5556 27.784 53.0874 27.9228 53.6287 27.9228C54.17 27.9228 54.7018 27.784 55.1708 27.5205C55.6398 27.2569 56.0295 26.8777 56.3008 26.421L68.6984 5.52176C68.868 5.23645 68.9578 4.91271 68.9589 4.58293C68.9599 4.25316 68.8721 3.9289 68.7042 3.6426C68.5363 3.35631 68.2943 3.11801 68.0023 2.95156C67.7104 2.7851 67.3787 2.69632 67.0405 2.69409Z" fill="#714AFF"/>
<path d="M57.5516 5.51096C57.7207 5.2277 57.8108 4.9062 57.813 4.57845C57.8152 4.25069 57.7293 3.92809 57.564 3.64272C57.3986 3.35735 57.1595 3.11915 56.8705 2.95181C56.5815 2.78447 56.2526 2.6938 55.9165 2.68884H55.8823H33.3375H29.1158C28.7769 2.68872 28.444 2.7755 28.1505 2.94049C27.8569 3.10547 27.6131 3.34285 27.4434 3.62878C27.2736 3.91472 27.1841 4.23916 27.1836 4.56953C27.1831 4.8999 27.2718 5.22457 27.4407 5.51096L29.526 9.03861L34.2434 17.0217C34.5148 17.4784 34.9044 17.8575 35.3734 18.1211C35.8424 18.3847 36.3742 18.5235 36.9155 18.5235C37.4568 18.5235 37.9887 18.3847 38.4576 18.1211C38.9266 17.8575 39.3163 17.4784 39.5876 17.0217L39.8212 16.6272C40.0925 16.1705 40.4822 15.7913 40.9512 15.5278C41.4202 15.2642 41.952 15.1254 42.4933 15.1254C43.0346 15.1254 43.5664 15.2642 44.0354 15.5278C44.5044 15.7913 44.8941 16.1705 45.1654 16.6272L48.0597 21.5215L56.7312 6.90536L57.5516 5.51096Z" fill="#1D99FF"/>
</svg>
