<svg width="16" height="16" viewBox="0 0 16 16" fill="none" xmlns="http://www.w3.org/2000/svg">
<path d="M8.39963 10.4266C8.39963 10.5057 8.37617 10.583 8.33222 10.6488C8.28826 10.7146 8.22579 10.7659 8.1527 10.7961C8.07961 10.8264 7.99918 10.8343 7.92159 10.8189C7.844 10.8035 7.77273 10.7654 7.71679 10.7094C7.66084 10.6535 7.62275 10.5822 7.60731 10.5046C7.59188 10.427 7.5998 10.3466 7.63008 10.2735C7.66035 10.2004 7.71162 10.138 7.7774 10.094C7.84318 10.0501 7.92052 10.0266 7.99963 10.0266C8.10572 10.0266 8.20746 10.0687 8.28247 10.1438C8.35749 10.2188 8.39963 10.3205 8.39963 10.4266ZM7.96211 5.17364C7.58649 5.17302 7.2201 5.29005 6.91437 5.50828C6.60865 5.72651 6.37893 6.03499 6.25747 6.39044C6.24055 6.44022 6.2336 6.49285 6.23702 6.54531C6.24044 6.59778 6.25416 6.64906 6.2774 6.69622C6.30063 6.74339 6.33293 6.78551 6.37245 6.8202C6.41197 6.85488 6.45793 6.88144 6.50771 6.89836C6.60825 6.93253 6.71824 6.92536 6.8135 6.87843C6.90875 6.8315 6.98146 6.74866 7.01563 6.64812C7.09284 6.42428 7.24688 6.23505 7.45039 6.11403C7.65391 5.99301 7.89373 5.94803 8.12727 5.98709C8.36081 6.02615 8.57294 6.14672 8.726 6.32738C8.87906 6.50804 8.96314 6.7371 8.96331 6.97388C8.96444 7.20918 8.87653 7.43621 8.71723 7.6094C8.70163 7.62719 8.68776 7.64643 8.67579 7.66684L8.49179 7.85668C8.12102 8.18559 7.81612 8.58195 7.59331 9.02468C7.57081 9.07362 7.55844 9.12661 7.55692 9.18046C7.5554 9.23431 7.56478 9.28791 7.58448 9.33804C7.60419 9.38818 7.63382 9.43382 7.6716 9.47222C7.70937 9.51062 7.75452 9.541 7.80432 9.56153C7.85412 9.58206 7.90756 9.59232 7.96143 9.59169C8.01529 9.59106 8.06848 9.57956 8.11779 9.55788C8.1671 9.53619 8.21152 9.50477 8.24839 9.46549C8.28526 9.42622 8.31382 9.3799 8.33235 9.32932C8.52164 8.98446 8.76934 8.67507 9.06443 8.41492L9.31835 8.15276C9.34427 8.12564 9.36586 8.09469 9.38235 8.061C9.63035 7.75292 9.76496 7.36897 9.76363 6.97348C9.76285 6.49608 9.57274 6.03848 9.23501 5.70107C8.89728 5.36366 8.43951 5.17398 7.96211 5.17364ZM13.3371 4.6626V11.3376C13.3366 11.8679 13.1257 12.3763 12.7508 12.7512C12.3758 13.1262 11.8674 13.3371 11.3371 13.3376H4.66211C4.13185 13.3371 3.62346 13.1262 3.2485 12.7512C2.87355 12.3763 2.66266 11.8679 2.66211 11.3376V4.6626C2.66266 4.13233 2.87355 3.62395 3.2485 3.24899C3.62346 2.87404 4.13185 2.66315 4.66211 2.6626H11.3371C11.8674 2.66315 12.3758 2.87404 12.7508 3.24899C13.1257 3.62395 13.3366 4.13233 13.3371 4.6626ZM12.5371 4.6626C12.5368 4.34445 12.4102 4.03943 12.1853 3.81447C11.9603 3.5895 11.6553 3.46296 11.3371 3.4626H4.66211C4.34396 3.46296 4.03894 3.5895 3.81398 3.81447C3.58901 4.03943 3.46247 4.34445 3.46211 4.6626V11.3376C3.46247 11.6558 3.58901 11.9608 3.81398 12.1858C4.03894 12.4107 4.34396 12.5373 4.66211 12.5376H11.3371C11.6553 12.5373 11.9603 12.4107 12.1853 12.1858C12.4102 11.9608 12.5368 11.6558 12.5371 11.3376V4.6626Z" fill="#97A6B2"/>
</svg>
